<?xml version="1.0" encoding="utf-8"?>
<!-- Generator: Adobe Illustrator 26.4.1, SVG Export Plug-In . SVG Version: 6.00 Build 0)  -->
<svg version="1.1" id="Warstwa_1" xmlns="http://www.w3.org/2000/svg" xmlns:xlink="http://www.w3.org/1999/xlink" x="0px" y="0px"
	 viewBox="0 0 384 512" style="enable-background:new 0 0 384 512;" xml:space="preserve">
<style type="text/css">
	.st0{fill:#B7B7B7;}
</style>
<path class="st0" d="M365.3,125.3L258.8,18.8C246.7,6.7,230.5,0,213.5,0H64C28.6,0,0,28.6,0,64l0,384c0,35.4,28.6,64,64,64h256
	c35.4,0,64-28.6,64-64V170.5C384,153.5,377.3,137.3,365.3,125.3z M224,34.1c4.5,1.6,8.7,3.8,12.1,7.3l106.5,106.5
	c3.5,3.4,5.8,7.6,7.3,12.1H240c-8.8,0-16-7.2-16-16V34.1z M352,448c0,17.6-14.4,32-32,32H64c-17.6,0-32-14.4-32-32V64
	c0-17.6,14.4-32,32-32h128v112c0,26.5,21.5,48,48,48h112V448z M192,308.1l-42.9-61.3c-5.1-7.2-15.1-9-22.3-3.9
	c-7.2,5.1-9,15-3.9,22.3l49.6,70.9l-49.6,70.8c-5.1,7.2-3.3,17.2,3.9,22.3c2.8,2,6,2.9,8.3,2.9c5,0,10-2.4,13.1-6.8l43.8-61.3
	l42.9,61.3c2.2,4.4,7.2,6.8,13.1,6.8c3.2,0,6.4-0.9,9.2-2.9c7.2-5.1,9-15,3.9-22.3L211.5,336l49.6-70.8c5.1-7.2,3.3-17.2-3.9-22.3
	s-17.2-3.3-22.3,3.9L192,308.1z"/>
</svg>
