<svg xmlns="http://www.w3.org/2000/svg" width="33" height="44" viewBox="0 0 33 44">
  <path id="pdf-icon" d="M33,38.5A5.505,5.505,0,0,1,27.5,44H5.5A5.5,5.5,0,0,1,0,38.5H2.75A2.749,2.749,0,0,0,5.5,41.25h22a2.747,2.747,0,0,0,2.75-2.75Zm-12.375-22A4.126,4.126,0,0,1,16.5,12.375V2.75H5.5A2.75,2.75,0,0,0,2.75,5.5V19.25H0V5.5A5.5,5.5,0,0,1,5.5,0H18.915a4.141,4.141,0,0,1,2.922,1.208l9.952,9.955A4.145,4.145,0,0,1,33,14.085V19.25H30.25V16.5Zm9.221-3.386-9.96-9.961a1.334,1.334,0,0,0-.636-.362v9.584a1.379,1.379,0,0,0,1.375,1.375h9.582A1.312,1.312,0,0,0,29.846,13.114ZM7.562,22a4.812,4.812,0,1,1,0,9.625H6.875v2.75a1.375,1.375,0,1,1-2.75,0v-11A1.377,1.377,0,0,1,5.5,22Zm2.063,4.812A2.058,2.058,0,0,0,7.562,24.75H6.875v4.125h.688A2.058,2.058,0,0,0,9.625,26.812Zm4.125-3.437A1.379,1.379,0,0,1,15.125,22h2.063a4.126,4.126,0,0,1,4.125,4.125v5.5a4.126,4.126,0,0,1-4.125,4.125H15.125a1.379,1.379,0,0,1-1.375-1.375ZM16.5,33h.688a1.379,1.379,0,0,0,1.375-1.375v-5.5a1.379,1.379,0,0,0-1.375-1.375H16.5ZM28.875,22a1.375,1.375,0,0,1,0,2.75h-2.75V27.5h2.75a1.375,1.375,0,0,1,0,2.75h-2.75v4.125a1.375,1.375,0,1,1-2.75,0v-11A1.379,1.379,0,0,1,24.75,22Z" fill="#b7b7b7"/>
</svg>
