<svg xmlns="http://www.w3.org/2000/svg" width="80.999" height="71.999" viewBox="0 0 80.999 71.999">
  <path id="plik-info" d="M9,67.5H41.653a22.328,22.328,0,0,0,4.711,4.4A10.734,10.734,0,0,1,45,72H9a9,9,0,0,1-9-9V9A9,9,0,0,1,9,0H30.951a6.776,6.776,0,0,1,4.781,1.977l16.284,16.29A6.783,6.783,0,0,1,54,23.048v4.88A24.548,24.548,0,0,0,49.5,29.7V27H33.75A6.752,6.752,0,0,1,27,20.25V4.5H9A4.5,4.5,0,0,0,4.5,9V63A4.5,4.5,0,0,0,9,67.5Zm39.839-46.04-16.3-16.3A2.184,2.184,0,0,0,31.5,4.567V20.25a2.257,2.257,0,0,0,2.25,2.25H49.429A2.147,2.147,0,0,0,48.838,21.459ZM60.749,40.5a3.375,3.375,0,1,1-3.375,3.375A3.367,3.367,0,0,1,60.749,40.5Zm-2.377,18V54a2.326,2.326,0,0,1-2.123-2.25A2.257,2.257,0,0,1,58.5,49.5h2.123a2.179,2.179,0,0,1,2.25,2.25L63,58.5A2.25,2.25,0,1,1,63,63H58.5a2.252,2.252,0,0,1-.127-4.5ZM60.749,72A20.25,20.25,0,1,1,81,51.749,20.255,20.255,0,0,1,60.749,72ZM76.5,51.749A15.75,15.75,0,1,0,60.749,67.5,15.742,15.742,0,0,0,76.5,51.749Z" fill="#b7b7b7"/>
</svg>
