<svg xmlns="http://www.w3.org/2000/svg" width="54" height="72" viewBox="0 0 54 72">
  <path id="plik-tekst" d="M51.37,17.62,36.394,2.644A9.007,9.007,0,0,0,30.023,0H9A9,9,0,0,0,0,9V63a9,9,0,0,0,9,9H45a9,9,0,0,0,9-9V23.977A8.97,8.97,0,0,0,51.37,17.62ZM31.5,4.793a4.432,4.432,0,0,1,1.7,1.026L48.181,20.8A4.219,4.219,0,0,1,49.2,22.5H33.75a2.257,2.257,0,0,1-2.25-2.25ZM49.5,63A4.506,4.506,0,0,1,45,67.5H9A4.506,4.506,0,0,1,4.5,63V9A4.506,4.506,0,0,1,9,4.5H27V20.25A6.752,6.752,0,0,0,33.75,27H49.5Zm-36-13.5a2.249,2.249,0,0,0-2.25,2.25v9a2.25,2.25,0,0,0,4.5,0v-9A2.257,2.257,0,0,0,13.5,49.5ZM27,31.5a2.257,2.257,0,0,0-2.25,2.25v27a2.25,2.25,0,0,0,4.5,0v-27A2.257,2.257,0,0,0,27,31.5ZM40.5,63a2.249,2.249,0,0,0,2.25-2.25v-18a2.25,2.25,0,0,0-4.5,0v18A2.257,2.257,0,0,0,40.5,63Z" fill="#b7b7b7"/>
</svg>
