<?xml version="1.0" encoding="utf-8"?>
<!-- Generator: Adobe Illustrator 26.4.1, SVG Export Plug-In . SVG Version: 6.00 Build 0)  -->
<svg version="1.1" id="Warstwa_1" xmlns="http://www.w3.org/2000/svg" xmlns:xlink="http://www.w3.org/1999/xlink" x="0px" y="0px"
	 viewBox="0 0 384 512" style="enable-background:new 0 0 384 512;" xml:space="preserve">
<style type="text/css">
	.st0{fill:#B7B7B7;}
</style>
<path class="st0" d="M177.1,250.1l-44,110l-21.4-107.2c-1.7-8.7-10.1-14.3-18.8-12.6c-8.7,1.7-14.3,10.2-12.6,18.8l32,160
	c1.4,6.9,7.2,12.1,14.2,12.8c7.2,0.7,13.7-3.4,16.3-10L192,299.1L241.1,422c2.5,6.1,8.4,10,14.9,10c0.5,0,1,0,1.5-0.1
	c7-0.7,12.8-5.9,14.2-12.8l32-160c1.7-8.7-3.9-17.1-12.5-18.8c-8.8-1.8-17.1,3.9-18.8,12.6l-21.4,107.2l-44-110
	C201.1,237.9,182,237.9,177.1,250.1z M365.3,125.3L258.8,18.8C246.7,6.7,230.5,0,213.5,0H64C28.6,0,0,28.6,0,64l0,384
	c0,35.4,28.6,64,64,64h256c35.4,0,64-28.6,64-64V170.5C384,153.5,377.3,137.3,365.3,125.3z M224,34.1c4.5,1.6,8.7,3.8,12.1,7.3
	l106.5,106.5c3.5,3.4,5.8,7.6,7.3,12.1H240c-8.8,0-16-7.2-16-16V34.1z M352,448c0,17.6-14.4,32-32,32H64c-17.6,0-32-14.4-32-32V64
	c0-17.6,14.4-32,32-32h128v112c0,26.5,21.5,48,48,48h112V448z"/>
</svg>
