<?xml version="1.0" encoding="utf-8"?>
<!-- Generator: Adobe Illustrator 26.4.1, SVG Export Plug-In . SVG Version: 6.00 Build 0)  -->
<svg version="1.1" id="Warstwa_1" xmlns="http://www.w3.org/2000/svg" xmlns:xlink="http://www.w3.org/1999/xlink" x="0px" y="0px"
	 viewBox="0 0 384 512" style="enable-background:new 0 0 384 512;" xml:space="preserve">
<style type="text/css">
	.st0{fill:#B7B7B7;}
</style>
<path class="st0" d="M365.3,125.3L258.8,18.8C246.7,6.7,230.5,0,213.5,0L64,0C28.7,0,0,28.6,0,64l0,384c0,35.4,28.6,64,64,64h256
	c35.4,0,64-28.6,64-64V170.5C384,153.5,377.3,137.3,365.3,125.3z M224,34.1c4.5,1.6,8.7,3.8,12.1,7.3l106.5,106.5
	c3.5,3.4,5.8,7.6,7.3,12.1H240c-8.8,0-16-7.2-16-16V34.1z M352,448c0,17.7-14.3,32-32,32H64c-17.7,0-32-14.3-32-32V64
	c0-17.7,14.3-32,32-32h128v112c0,26.5,21.5,48,48,48h112V448z M144,128H80c-8.8,0-16,7.2-16,16s7.2,16,16,16h64c8.8,0,16-7.2,16-16
	S152.8,128,144,128z M144,64H80c-8.8,0-16,7.2-16,16s7.2,16,16,16h64c8.8,0,16-7.2,16-16S152.8,64,144,64z M144,192H80
	c-8.8,0-16,7.2-16,16s7.2,16,16,16h64c8.8,0,16-7.2,16-16S152.8,192,144,192z M144,256H80c-8.8,0-16,7.2-16,16v48
	c0,26.5,21.5,48,48,48s48-21.5,48-48v-48C160,263.2,152.8,256,144,256z M128,320c0,8.8-7.2,16-16,16s-16-7.2-16-16v-32h32V320z"/>
</svg>
