<svg xmlns="http://www.w3.org/2000/svg" width="43" height="37.625" viewBox="0 0 43 37.625">
  <path id="icon9" d="M44.766,54.844a2.011,2.011,0,0,1,2.016,2.016v4.031a2.011,2.011,0,0,1-2.016,2.016H40.734a2.011,2.011,0,0,1-2.016-2.016V56.859a2.011,2.011,0,0,1,2.016-2.016Zm-.672,5.375V57.531H41.406v2.688Zm5.375-3.359a2.011,2.011,0,0,1,2.016-2.016h4.031a2.011,2.011,0,0,1,2.016,2.016v4.031a2.011,2.011,0,0,1-2.016,2.016H51.484a2.011,2.011,0,0,1-2.016-2.016Zm2.688,3.359h2.688V57.531H52.156Zm14.109-5.375a2.011,2.011,0,0,1,2.016,2.016v4.031a2.011,2.011,0,0,1-2.016,2.016H62.234a2.011,2.011,0,0,1-2.016-2.016V56.859a2.011,2.011,0,0,1,2.016-2.016Zm-.672,2.688H62.906v2.688h2.688ZM41.406,32a4.032,4.032,0,0,1,4.031,4.031V46.059l9.557-6.366a3.356,3.356,0,0,1,5.224,2.788v4.258l9.457-6.811A3.358,3.358,0,0,1,75,42.658V64.25a5.38,5.38,0,0,1-5.375,5.375H37.375A5.377,5.377,0,0,1,32,64.25V36.031A4.031,4.031,0,0,1,36.031,32ZM34.688,64.25a2.686,2.686,0,0,0,2.688,2.688h32.25a2.685,2.685,0,0,0,2.688-2.687V42.658a.672.672,0,0,0-1.067-.546l-11.59,8.34a1.2,1.2,0,0,1-1.394.034,1.175,1.175,0,0,1-.731-1.125V42.481a.669.669,0,0,0-1.041-.554l-11.649,7.76a1.338,1.338,0,0,1-1.377.067,1.323,1.323,0,0,1-.714-1.184V36.031a1.346,1.346,0,0,0-1.344-1.344H36.031a1.343,1.343,0,0,0-1.344,1.344Z" transform="translate(-32 -32)" fill="#58bc70"/>
</svg>
