<svg id="icon3" xmlns="http://www.w3.org/2000/svg" width="49.21" height="64.657" viewBox="0 0 49.21 64.657">
  <path id="Path_682" data-name="Path 682" d="M233.083,28.58a19.569,19.569,0,0,1,3.962,0,.965.965,0,0,0,.1.005.947.947,0,0,0,.1-1.889,21.46,21.46,0,0,0-4.352,0,.947.947,0,1,0,.2,1.884Z" transform="translate(-210.459 -23.228)" fill="#55bc70"/>
  <path id="Path_683" data-name="Path 683" d="M124.383,79.389a.947.947,0,0,0-.8,1.073,16.869,16.869,0,1,0-.007-4.767.947.947,0,0,0,1.876.264,14.969,14.969,0,1,1,.007,4.232.947.947,0,0,0-1.072-.8Z" transform="translate(-115.683 -53.447)" fill="#55bc70"/>
  <path id="Path_684" data-name="Path 684" d="M103.354,43.494h-30.2A22.721,22.721,0,0,1,69.707,8.546a22.711,22.711,0,0,1,32.336,31.9.947.947,0,0,0,1.357,1.321A24.605,24.605,0,1,0,68.368,42c.521.521,1.067,1.018,1.632,1.49H68.178a7.025,7.025,0,0,0-7.017,7.017v7.13a7.025,7.025,0,0,0,7.017,7.017h35.177a7.025,7.025,0,0,0,7.017-7.017v-7.13a7.025,7.025,0,0,0-7.017-7.017Zm0,19.27h-.709L99.53,58.289a.947.947,0,0,0-1.555,1.082l2.362,3.391H94.919L93,60.162a.947.947,0,0,0-1.524,1.125l1.089,1.476H87.225L84.11,58.289a.947.947,0,0,0-1.554,1.082l2.361,3.391H79.5l-1.92-2.6a.947.947,0,1,0-1.524,1.125l1.089,1.476H71.805L68.69,58.289a.947.947,0,0,0-1.554,1.082L69.5,62.763h-1.32a5.128,5.128,0,0,1-5.122-5.123V55.023h6.164a.947.947,0,1,0,0-1.894H63.055V50.511a5.128,5.128,0,0,1,5.122-5.123h1.257l-1.089,1.476a.947.947,0,1,0,1.524,1.125l1.92-2.6h5.418l-2.362,3.391A.947.947,0,1,0,76.4,49.862l3.115-4.474h5.339l-1.089,1.476a.947.947,0,1,0,1.524,1.125l1.92-2.6h5.418l-2.362,3.391a.947.947,0,1,0,1.555,1.082l3.115-4.474h5.339l-1.089,1.476a.947.947,0,1,0,1.524,1.125l1.92-2.6h.726a5.128,5.128,0,0,1,5.122,5.123v2.618H73.658a.947.947,0,1,0,0,1.894h34.819V57.64a5.128,5.128,0,0,1-5.123,5.123Z" transform="translate(-61.161 0)" fill="#383839"/>
  <path id="Path_685" data-name="Path 685" d="M153.153,110.083a13.277,13.277,0,0,0,4.7,4.7l0,0a13.205,13.205,0,0,0,13.38,0l0,0a13.276,13.276,0,0,0,4.7-4.7v0a13.206,13.206,0,0,0,0-13.382h0a13.276,13.276,0,0,0-4.7-4.7l0,0a13.206,13.206,0,0,0-13.38,0,13.455,13.455,0,0,0-4.707,4.708,13.205,13.205,0,0,0,0,13.38v0Zm2.294-13.423a11.446,11.446,0,0,1,2.755-2.645l1.5,1.5-.053,1a.947.947,0,0,0,.276.72l2.155,2.155a4.685,4.685,0,0,0-1.525,1.527L158.4,98.77a.949.949,0,0,0-.72-.276l-1,.053-1.5-1.5C155.238,96.951,155.272,96.9,155.447,96.66Zm14-.136-.053-1,1.5-1.5a11.11,11.11,0,0,1,3.027,3.027l-1.5,1.5-1-.053a.94.94,0,0,0-.72.276l-2.155,2.155a4.712,4.712,0,0,0-1.526-1.526l2.155-2.155A.948.948,0,0,0,169.446,96.524Zm4.206,13.6a11.366,11.366,0,0,1-2.755,2.645l-1.5-1.5.053-1a.947.947,0,0,0-.276-.72l-2.155-2.155a4.723,4.723,0,0,0,.852-.674h0a4.724,4.724,0,0,0,.674-.852l2.155,2.155a.94.94,0,0,0,.72.276l1-.053,1.5,1.5c-.061.087-.1.141-.273.383Zm-14,.136.053,1-1.5,1.5a11.473,11.473,0,0,1-3.027-3.028l1.5-1.5,1,.053a.945.945,0,0,0,.72-.276l2.156-2.156a4.685,4.685,0,0,0,1.525,1.527l-2.155,2.155A.947.947,0,0,0,159.654,110.255Zm4.9-9.661a2.8,2.8,0,0,1,1.977,4.772h0a2.8,2.8,0,1,1-1.977-4.772Zm10.333,7.423-1.422-1.422a.94.94,0,0,0-.72-.276l-1,.053-2.519-2.519a4.916,4.916,0,0,0,0-.925l2.519-2.52,1,.053a.94.94,0,0,0,.72-.276l1.422-1.422a11.315,11.315,0,0,1,0,9.254Zm-20.667-9.254,1.422,1.422a.947.947,0,0,0,.72.276l1-.053,2.522,2.522a4.728,4.728,0,0,0,0,.92l-2.522,2.522-1-.053a.947.947,0,0,0-.72.276l-1.422,1.422A11.314,11.314,0,0,1,154.216,98.763Zm5.706,14.96,1.422-1.422a.947.947,0,0,0,.276-.72l-.053-1,2.519-2.519a4.93,4.93,0,0,0,.925,0l2.52,2.519-.053,1a.947.947,0,0,0,.276.72l1.422,1.422A11.315,11.315,0,0,1,159.923,113.723Zm9.254-20.667-1.422,1.422a.947.947,0,0,0-.276.72l.053,1-2.519,2.519a4.918,4.918,0,0,0-.925,0L161.568,96.2l.053-1a.947.947,0,0,0-.276-.72l-1.422-1.422a11.3,11.3,0,0,1,9.254,0Z" transform="translate(-139.945 -78.785)" fill="#55bc70"/>
</svg>
