<svg xmlns="http://www.w3.org/2000/svg" width="64.657" height="64.657" viewBox="0 0 64.657 64.657">
  <g id="icon13" transform="translate(-0.001)">
    <g id="XMLID_595_" transform="translate(0.001 0)">
      <path id="XMLID_611_" d="M346.478,140.768H339.3a1.263,1.263,0,0,0-1.263,1.263v1.01H333.74v-1.01a1.263,1.263,0,0,0-1.263-1.263h-1.531a1.263,1.263,0,1,0,0,2.526h.269v1.01a1.263,1.263,0,0,0,1.263,1.263H339.3a1.263,1.263,0,0,0,1.263-1.263v-1.01h4.656v4.293l-13.644,7.9v-4.235a1.263,1.263,0,0,0-.626-1.091l-4.426-2.582a1.263,1.263,0,0,0-2.519.131v.6a1.263,1.263,0,0,0,.626,1.091l4.419,2.578v24.512a1.263,1.263,0,0,0,.162.619L334.77,187a1.263,1.263,0,0,0,2.2,0l5.562-9.893a1.263,1.263,0,0,0,.162-.619V151.98l4.419-2.578a1.263,1.263,0,0,0,.626-1.091v-6.281A1.263,1.263,0,0,0,346.478,140.768Zm-6.309,22.483-8.6,4.964v-3.446l8.6-4.964Zm-8.6,7.881,8.6-4.964v3.446l-8.6,4.964Zm8.6-17.689v3.446l-8.6,4.964v-3.446Zm-4.3,30.367-3.734-6.642,8.033-4.638v3.633Z" transform="translate(-283.084 -122.991)" fill="#55bc70"/>
      <path id="XMLID_617_" d="M38.282,28.858a1.263,1.263,0,0,0-.323-.552L20.626,10.973l1.3-4.948A1.263,1.263,0,0,0,21.6,4.811L17.159.37a1.263,1.263,0,0,0-1.786,0L10.294,5.448a1.263,1.263,0,0,0,0,1.786l.714.715L7.972,10.985l-.714-.714a1.263,1.263,0,0,0-1.786,0l-5.1,5.1a1.263,1.263,0,0,0,0,1.786L4.812,21.6a1.263,1.263,0,0,0,1.214.328l4.948-1.3L28.307,37.958a1.263,1.263,0,0,0,.552.323l10.929,3.063a1.263,1.263,0,0,0,1.557-1.557Zm-9.543,5.959L26.3,32.381l2.57-9.59,2.437,2.437ZM21.8,27.882l2.57-9.59,2.437,2.437-2.57,9.59ZM22.31,16.23l-2.57,9.59L17.3,23.383l2.57-9.59ZM11.033,18,6.085,19.3,3.05,16.265l3.315-3.315.714.714a1.263,1.263,0,0,0,1.786,0l4.822-4.822a1.263,1.263,0,0,0,0-1.786l-.714-.715,3.293-3.292L19.3,6.084,15.242,21.321l-2.995-2.995A1.263,1.263,0,0,0,11.033,18ZM30.97,36.249l2.4-8.96,2.569,2.568,2.367,8.447Z" transform="translate(-0.001 0)" fill="#fff"/>
      <path id="XMLID_622_" d="M325.263,143.295a1.263,1.263,0,1,0-.893-.37A1.272,1.272,0,0,0,325.263,143.295Z" transform="translate(-283.084 -122.992)" fill="#55bc70"/>
    </g>
  </g>
</svg>
