<svg id="icon2" xmlns="http://www.w3.org/2000/svg" width="69.428" height="64.657" viewBox="0 0 69.428 64.657">
  <path id="Path_679" data-name="Path 679" d="M49.766,17.819a1.1,1.1,0,0,0-.661-.506,1.089,1.089,0,0,0-.827.108L35.726,24.669a1.09,1.09,0,0,0-.4,1.488l6.218,10.757a1.087,1.087,0,1,0,1.88-1.089l-5.677-9.816L48.416,19.85l7.98,13.8a1.138,1.138,0,0,1,0,1.134l-2.351,4.1h-18.2v-2.01a1.089,1.089,0,0,0-1.88-.743l-9.7,10.331a1.089,1.089,0,0,0-.023,1.465l9.7,11.035a1.089,1.089,0,0,0,.817.369,1.1,1.1,0,0,0,.39-.08,1.089,1.089,0,0,0,.7-1.012V55.53l10.506.014A1.089,1.089,0,0,0,47.3,55l10.99-19.124a3.317,3.317,0,0,0,0-3.307ZM45.717,53.368l-10.964-.014a1.086,1.086,0,0,0-1.089,1.087v.9L26.52,47.225l7.144-7.609v.351a1.089,1.089,0,0,0,1.089,1.087H52.79Z" transform="translate(10.696 5.33)" fill="#383839"/>
  <path id="Path_680" data-name="Path 680" d="M9.483,19.59l12.559,7.246a1.1,1.1,0,0,0,.545.145,1.092,1.092,0,0,0,.941-.545l6.207-10.769a1.087,1.087,0,1,0-1.88-1.087l-5.663,9.833L11.525,18.254l7.958-13.81a1.14,1.14,0,0,1,.983-.565l4.723-.01,9.1,15.762-1.575.911a1.064,1.064,0,0,0-.688.753.868.868,0,0,0,0,.106q-.006.171,0,.343a1.09,1.09,0,0,0,.827.9l13.79,3.236a1.092,1.092,0,0,0,1.286-.723l4.7-13.914a1.087,1.087,0,0,0-1.575-1.29L48.71,11.3l-5.241-9.11a1.086,1.086,0,0,0-.943-.545l-22.053.049a3.326,3.326,0,0,0-2.866,1.653L9.085,18.1a1.087,1.087,0,0,0,.4,1.488ZM41.891,3.828l5.469,9.5a1.089,1.089,0,0,0,1.488.4l.785-.454L46.192,23.5,36.058,21.122l.268-.155a1.09,1.09,0,0,0,.4-1.487L27.707,3.863Z" transform="translate(3.99 -1.643)" fill="#55bc70"/>
  <path id="Path_681" data-name="Path 681" d="M11.214,53.651a3.314,3.314,0,0,0,2.865,1.654H31.107a1.087,1.087,0,0,0,1.087-1.087V39.724a1.089,1.089,0,0,0-1.087-1.087l-12.436.009a1.089,1.089,0,1,0,0,2.176l11.34-.009V53.131H14.078a1.134,1.134,0,0,1-.98-.568l-2.372-4.085,9.1-15.762,1.743,1a1.087,1.087,0,0,0,1.591-1.258L19.06,18.9a1.08,1.08,0,0,0-1.255-.752l-14.4,2.892a1.089,1.089,0,0,0-.33,2.01L5.416,24.4.145,33.487a1.085,1.085,0,0,0,0,1.09ZM7.839,24.543a1.089,1.089,0,0,0-.4-1.488L6.653,22.6l10.6-2.127,3.018,9.99-.305-.175a1.087,1.087,0,0,0-1.485.4L9.464,46.307,2.343,34.031Z" transform="translate(0.002 5.708)" fill="#383839"/>
</svg>
