<svg id="icon5" xmlns="http://www.w3.org/2000/svg" width="90.317" height="64.657" viewBox="0 0 90.317 64.657">
  <path id="Path_686" data-name="Path 686" d="M90.194,103.434,79.859,81.16a1.323,1.323,0,0,0-1.2-.766H69.068a1.323,1.323,0,1,0,0,2.646h8.746l1,2.165H67.789A4.892,4.892,0,0,0,62.9,90.091v10.335a4.893,4.893,0,0,0,4.887,4.887H87.671v3.412H83.648a1.323,1.323,0,0,0-1.323,1.323V115.4a1.323,1.323,0,0,0,1.323,1.323h4.023v7.333H84.719a12.013,12.013,0,0,0-23.881,0H58.42V83.04h4.461a1.323,1.323,0,1,0,0-2.646H58.42v-6.34A1.323,1.323,0,0,0,57.1,72.731H49.657a1.323,1.323,0,0,0,0,2.646h6.118v48.674H45.338A12.01,12.01,0,0,0,22.706,119.9a12,12,0,0,0-20.06-2.039V94.8L25.508,75.377H43.483a1.323,1.323,0,1,0,0-2.646H25.022a1.324,1.324,0,0,0-.857.315L.466,93.182A1.323,1.323,0,0,0,0,94.19v31.184H0a12.011,12.011,0,0,0,22.706,5.469A12.01,12.01,0,0,0,45.338,126.7h15.5a12.013,12.013,0,0,0,23.88,0h4.276a1.323,1.323,0,0,0,1.323-1.323V103.991A1.322,1.322,0,0,0,90.194,103.434Zm-78.18,31.308a9.369,9.369,0,1,1,9.369-9.369A9.379,9.379,0,0,1,12.015,134.743Zm21.383,0a9.369,9.369,0,1,1,9.369-9.369A9.379,9.379,0,0,1,33.4,134.743Zm39.381,0a9.369,9.369,0,1,1,9.369-9.369A9.379,9.379,0,0,1,72.779,134.743Zm-7.23-34.316V90.092a2.243,2.243,0,0,1,2.241-2.241H80.048l6.874,14.817H67.789A2.243,2.243,0,0,1,65.548,100.427Zm19.423,13.645v-2.7h2.7v2.7Z" transform="translate(0 -72.731)" fill="#383839"/>
  <path id="Path_687" data-name="Path 687" d="M386.431,339.416a5.6,5.6,0,1,0,5.6,5.6A5.606,5.606,0,0,0,386.431,339.416Zm0,8.553a2.954,2.954,0,1,1,2.954-2.954A2.957,2.957,0,0,1,386.431,347.969Z" transform="translate(-313.652 -292.373)" fill="#55bc70"/>
  <path id="Path_688" data-name="Path 688" d="M163.185,339.416a5.6,5.6,0,1,0,5.6,5.6A5.606,5.606,0,0,0,163.185,339.416Zm0,8.553a2.954,2.954,0,1,1,2.954-2.954A2.957,2.957,0,0,1,163.185,347.969Z" transform="translate(-129.787 -292.373)" fill="#55bc70"/>
  <path id="Path_689" data-name="Path 689" d="M41.965,339.416a5.6,5.6,0,1,0,5.6,5.6A5.606,5.606,0,0,0,41.965,339.416Zm0,8.553a2.954,2.954,0,1,1,2.954-2.954A2.957,2.957,0,0,1,41.965,347.969Z" transform="translate(-29.95 -292.373)" fill="#55bc70"/>
  <path id="Path_690" data-name="Path 690" d="M171.25,151.73l1.433-2.52a1.27,1.27,0,0,1,2.209,0l1.97,3.464-1.144.65,4.553,2.668.035-5.277-1.144.651-1.97-3.464a3.916,3.916,0,0,0-6.809,0l-1.433,2.52a1.323,1.323,0,1,0,2.3,1.308Z" transform="translate(-139.005 -133.011)" fill="#55bc70"/>
  <path id="Path_691" data-name="Path 691" d="M198.587,211.918a1.323,1.323,0,0,0-.5,1.8l1.483,2.608a1.27,1.27,0,0,1-1.1,1.9H194.4v-1.316l-4.57,2.639,4.57,2.639v-1.316h4.068a3.916,3.916,0,0,0,3.4-5.853l-1.483-2.608a1.323,1.323,0,0,0-1.8-.5Z" transform="translate(-156.345 -187.222)" fill="#55bc70"/>
  <path id="Path_692" data-name="Path 692" d="M133.866,203.217a3.879,3.879,0,0,0,3.385,1.947h2.414a1.323,1.323,0,0,0,0-2.646h-2.414a1.27,1.27,0,0,1-1.1-1.9l1.89-3.324,1.144.651-.035-5.277-4.553,2.668,1.144.651-1.89,3.324a3.878,3.878,0,0,0,.019,3.905Z" transform="translate(-109.81 -171.513)" fill="#55bc70"/>
  <path id="Path_693" data-name="Path 693" d="M366.526,271.35a1.323,1.323,0,0,0,0-2.646h-3.564a1.323,1.323,0,0,0,0,2.646Z" transform="translate(-297.846 -234.134)" fill="#55bc70"/>
</svg>
