<svg xmlns="http://www.w3.org/2000/svg" width="43" height="30.1" viewBox="0 0 43 30.1">
  <path id="icon10" d="M18.275,43.825a6.45,6.45,0,1,1,12.9,0,6.45,6.45,0,1,1-12.9,0Zm6.45-4.3a4.3,4.3,0,1,0,4.3,4.3A4.3,4.3,0,0,0,24.725,39.525ZM38.7,32A4.3,4.3,0,0,1,43,36.3V51.35a4.3,4.3,0,0,1-4.3,4.3H10.75a4.3,4.3,0,0,1-4.3-4.3V36.3a4.3,4.3,0,0,1,4.3-4.3Zm0,2.15H36.55a4.3,4.3,0,0,0,4.3,4.3V36.3A2.149,2.149,0,0,0,38.7,34.15ZM8.6,40.6v6.45a6.413,6.413,0,0,1,6.45,6.45H34.4a6.376,6.376,0,0,1,6.45-6.45V40.6a6.413,6.413,0,0,1-6.45-6.45H15.05A6.452,6.452,0,0,1,8.6,40.6Zm0,8.6v2.15a2.148,2.148,0,0,0,2.15,2.15H12.9A4.3,4.3,0,0,0,8.6,49.2Zm30.1,4.3a2.148,2.148,0,0,0,2.15-2.15V49.2a4.3,4.3,0,0,0-4.3,4.3ZM12.9,34.15H10.75A2.149,2.149,0,0,0,8.6,36.3v2.15A4.3,4.3,0,0,0,12.9,34.15ZM2.15,54.575A5.374,5.374,0,0,0,7.525,59.95h27.95a1.075,1.075,0,1,1,0,2.15H7.525A7.523,7.523,0,0,1,0,54.575v-17.2a1.075,1.075,0,1,1,2.15,0Z" transform="translate(0 -32)" fill="#58bc70"/>
</svg>
