<svg xmlns="http://www.w3.org/2000/svg" width="86.182" height="53.884" viewBox="0 0 86.182 53.884">
  <g id="icon8" transform="translate(0 0)">
    <g id="petrol" transform="translate(21.748 4.983)">
      <g id="green-energy" transform="translate(0 0)">
        <path id="Path_654" data-name="Path 654" d="M11.4,43.918h.142A20.626,20.626,0,0,0,26.759,36.58c4.552-4.868,5.737-11.594,6.689-17A43.978,43.978,0,0,1,34.455,14.8,31.4,31.4,0,0,1,42.149,2.894a1.668,1.668,0,0,0,.416-1.85A1.63,1.63,0,0,0,40.984,0c-1,.02-24.5.7-35.691,16.557C-.507,24.786-.426,30.438.416,34.887a11.089,11.089,0,0,0,10.98,9.03ZM8.019,18.479C15.552,7.806,29.837,4.637,36.895,3.71a31.262,31.262,0,0,0-5.628,10.109A46.143,46.143,0,0,0,30.155,19c-.876,4.97-1.966,11.156-5.841,15.3a17.471,17.471,0,0,1-12.9,6.282,7.783,7.783,0,0,1-7.732-6.317c-.7-3.756-.747-8.581,4.334-15.777Z" transform="translate(0 0)" fill="#55bc70"/>
        <path id="Path_656" data-name="Path 656" d="M1.227,27.747a1.712,1.712,0,0,0,.445.06A1.67,1.67,0,0,0,3.28,26.584,54.856,54.856,0,0,1,9.4,15.465,54.341,54.341,0,0,1,21.051,3.027,1.668,1.668,0,0,0,19.116.309,56.68,56.68,0,0,0,6.644,13.58,57.939,57.939,0,0,0,.062,25.687a1.668,1.668,0,0,0,1.165,2.059Z" transform="translate(7.167 8.611)" fill="#55bc70"/>
      </g>
    </g>
    <g id="icon8-2" data-name="icon8">
      <path id="Path_698" data-name="Path 698" d="M33.757,57.884H15.8a1.8,1.8,0,0,1,0-3.592H33.757A5.4,5.4,0,0,0,39.146,48.9V45.311a1.8,1.8,0,0,1,1.8-1.8H44.5a1.8,1.8,0,0,0,1.8-1.8V20.165a1.8,1.8,0,0,0-1.8-1.8h-3.56a1.8,1.8,0,0,1-1.8-1.8V12.981a5.4,5.4,0,0,0-5.388-5.388h-.777a1.8,1.8,0,1,1,0-3.592h.777a8.993,8.993,0,0,1,8.981,8.981v1.8H44.5a5.4,5.4,0,0,1,5.388,5.388V41.719A5.4,5.4,0,0,1,44.5,47.107H42.738v1.8A8.993,8.993,0,0,1,33.757,57.884Z" transform="translate(36.292 -4)" fill="#383839"/>
      <path id="Path_699" data-name="Path 699" d="M16.35,57.884H8.981A8.993,8.993,0,0,1,0,48.9V12.981A8.993,8.993,0,0,1,8.981,4H34.127a1.8,1.8,0,0,1,0,3.592H8.981a5.4,5.4,0,0,0-5.388,5.388V48.9a5.4,5.4,0,0,0,5.388,5.388H16.35a1.8,1.8,0,1,1,0,3.592Z" transform="translate(0 -4)" fill="#383839"/>
    </g>
  </g>
</svg>
