<svg xmlns="http://www.w3.org/2000/svg" width="74.5" height="64.657" viewBox="0 0 74.5 64.657">
  <g id="icon12" transform="translate(7.314 0.001)">
    <path id="Path_651" data-name="Path 651" d="M61.738,61.872l-1.255-3.745a1.01,1.01,0,0,0-1.915.641l.92,2.745-3.11.894-1.633-4.871L60.4,55.755a1.01,1.01,0,0,0,.651-1.293L53.987,34l1.387-1.9a5.975,5.975,0,0,0-1.412-8.427L33.739,9.456a1.009,1.009,0,0,0-1.37.194L31.4,10.862,23.424,4.342a1.017,1.017,0,0,0-.313-.174L11.106.055A1.006,1.006,0,0,0,9.837.641L8.328,4.482a1.01,1.01,0,0,0,.629,1.331l11.18,3.617,7.228,6.466-1.044,1.3A1.01,1.01,0,1,0,27.9,18.461l5.455-6.806L52.8,25.324a3.967,3.967,0,0,1,1.65,2.61,3.924,3.924,0,0,1-.71,2.973l-1.7,2.33a1.014,1.014,0,0,0-.135.925l6.9,19.981L51.945,56.3l-1.49-4.079a1.014,1.014,0,0,0-1.024-.661L35.757,52.567a4.31,4.31,0,0,1-4.58-3.533L28.245,36.522a3.33,3.33,0,0,1,.586-2.767l5.144-6.833a1.009,1.009,0,0,0,.015-1.195l-4.176-5.847a1.01,1.01,0,1,0-1.645,1.173L31.91,26.3l-4.7,6.243a5.341,5.341,0,0,0-.943,4.445l2.923,12.461A6.307,6.307,0,0,0,35.9,54.584l12.912-.951,1.56,4.269a1.01,1.01,0,0,0,1.254.617l1.189-.374,1.95,5.823A1.01,1.01,0,0,0,56,64.617l5.054-1.453a1.01,1.01,0,0,0,.674-1.292ZM21.328,7.778a.986.986,0,0,0-.362-.209L10.6,4.22l.762-1.941L22.284,6.021l7.852,6.42-1.5,1.875Z" transform="translate(5.403 0)" fill="#fff"/>
    <path id="Path_652" data-name="Path 652" d="M41.213,40.51a1.01,1.01,0,1,0,1.9-.692L37.576,24.656A1.012,1.012,0,0,0,36.717,24l-7.947-.718a1.022,1.022,0,0,0-.853.345l-2.606,3a1.979,1.979,0,0,0-.435,1.734l2.462,10.8a3.906,3.906,0,0,0,3.8,3,2.668,2.668,0,0,0,.358-.016l7.409-.674a1.012,1.012,0,0,0-.183-2.014l-7.409.68a1.864,1.864,0,0,1-2-1.428L26.838,27.95,29.1,25.338l2,.181,1.949,6.114L31.66,34.82a1.01,1.01,0,0,0,1.851.808l1.548-3.535a1.008,1.008,0,0,0,.038-.713L33.29,25.714l2.605.236Z" transform="translate(11.153 8.077)" fill="#fff"/>
    <g id="green-energy" transform="matrix(0.839, -0.545, 0.545, 0.839, -7.314, 26.698)">
      <path id="Path_654" data-name="Path 654" d="M6.9,26.6H6.99a12.5,12.5,0,0,0,9.22-4.445c2.757-2.949,3.475-7.023,4.052-10.3a26.641,26.641,0,0,1,.61-2.9,19.024,19.024,0,0,1,4.661-7.212A1.01,1.01,0,0,0,25.785.632.987.987,0,0,0,24.827,0c-.6.012-14.843.423-21.621,10.03C-.307,15.014-.258,18.438.252,21.134A6.718,6.718,0,0,0,6.9,26.6ZM4.858,11.194C9.421,4.729,18.074,2.809,22.35,2.247a18.937,18.937,0,0,0-3.409,6.123,27.952,27.952,0,0,0-.674,3.139c-.531,3.011-1.191,6.758-3.539,9.269a10.583,10.583,0,0,1-7.813,3.805,4.715,4.715,0,0,1-4.684-3.827c-.427-2.275-.453-5.2,2.625-9.557Z" fill="#f5835d"/>
      <path id="Path_656" data-name="Path 656" d="M.743,16.808a1.037,1.037,0,0,0,.269.036,1.012,1.012,0,0,0,.974-.741A33.23,33.23,0,0,1,5.692,9.369a32.918,32.918,0,0,1,7.06-7.535A1.01,1.01,0,0,0,11.58.187,34.335,34.335,0,0,0,4.025,8.226,35.1,35.1,0,0,0,.038,15.561a1.01,1.01,0,0,0,.706,1.247Z" transform="translate(4.342 5.216)" fill="#f5835d"/>
    </g>
  </g>
</svg>
