<svg xmlns="http://www.w3.org/2000/svg" width="43" height="37.625" viewBox="0 0 43 37.625">
  <path id="icon11" d="M2.688,62.906a4.032,4.032,0,0,0,4.031,4.031H41.656a1.344,1.344,0,0,1,0,2.688H6.719A6.718,6.718,0,0,1,0,62.906V33.344a1.344,1.344,0,0,1,2.688,0ZM28.219,40.063h10.75a1.348,1.348,0,0,1,1.344,1.344v10.75a1.344,1.344,0,0,1-2.687,0V44.648l-9.8,9.8a1.333,1.333,0,0,1-1.9,0l-7.189-7.113-8.382,8.457a1.342,1.342,0,0,1-1.9-1.9l9.406-9.406a1.333,1.333,0,0,1,1.9,0L26.875,51.6l8.852-8.852H28.219a1.344,1.344,0,1,1,0-2.687Z" transform="translate(0 -32)" fill="#58bc70"/>
</svg>
