<svg id="icon14" xmlns="http://www.w3.org/2000/svg" width="49.21" height="64.657" viewBox="0 0 49.21 64.657">
  <path id="Path_682" data-name="Path 682" d="M232.749,27.942a13.317,13.317,0,0,1,2.7,0,.657.657,0,0,0,.067,0,.645.645,0,0,0,.066-1.286,14.6,14.6,0,0,0-2.962,0,.644.644,0,1,0,.133,1.282Z" transform="translate(-209.492 -24.3)" fill="#6594ce"/>
  <path id="Path_683" data-name="Path 683" d="M124.5,80.54a1.022,1.022,0,0,0-.921,1.14,16.971,16.971,0,0,0,2.473,6.525,18.214,18.214,0,0,0,3.009,3.6,19.281,19.281,0,0,0,3.885,2.784,20.716,20.716,0,0,0,19.635,0,19.3,19.3,0,0,0,3.888-2.786,18.2,18.2,0,0,0,3.007-3.6,16.794,16.794,0,0,0,0-18.179,18.212,18.212,0,0,0-3.009-3.6,19.281,19.281,0,0,0-3.885-2.784,20.717,20.717,0,0,0-19.635,0,19.292,19.292,0,0,0-3.888,2.786,18.2,18.2,0,0,0-3.008,3.6,16.973,16.973,0,0,0-2.483,6.586,1.023,1.023,0,0,0,.925,1.138,1.076,1.076,0,0,0,1.229-.857,15.067,15.067,0,0,1,2.2-5.846,16.155,16.155,0,0,1,2.671-3.193,17.131,17.131,0,0,1,3.452-2.474,18.39,18.39,0,0,1,17.431,0,17.111,17.111,0,0,1,3.449,2.472,16.169,16.169,0,0,1,2.672,3.2,14.907,14.907,0,0,1,0,16.138,16.157,16.157,0,0,1-2.671,3.193,17.122,17.122,0,0,1-3.453,2.474,18.389,18.389,0,0,1-17.43,0,17.123,17.123,0,0,1-3.449-2.472,16.17,16.17,0,0,1-2.672-3.2,15.062,15.062,0,0,1-2.2-5.792A1.077,1.077,0,0,0,124.5,80.54Z" transform="translate(-118.201 -55.915)" fill="#6594ce"/>
  <path id="Path_684" data-name="Path 684" d="M103.354,43.494h-30.2A22.721,22.721,0,0,1,69.707,8.546a22.711,22.711,0,0,1,32.336,31.9.947.947,0,0,0,1.357,1.321A24.605,24.605,0,1,0,68.368,42c.521.521,1.067,1.018,1.632,1.49H68.178a7.025,7.025,0,0,0-7.017,7.017v7.13a7.025,7.025,0,0,0,7.017,7.017h35.177a7.025,7.025,0,0,0,7.017-7.017V50.51a7.025,7.025,0,0,0-7.017-7.017Zm0,19.269h-.709L99.53,58.289a.947.947,0,0,0-1.555,1.082l2.362,3.391H94.919L93,60.162a.947.947,0,0,0-1.524,1.125l1.089,1.476H87.225L84.11,58.289a.947.947,0,0,0-1.554,1.082l2.361,3.391H79.5l-1.92-2.6a.947.947,0,1,0-1.524,1.125l1.089,1.476H71.805L68.69,58.289a.947.947,0,0,0-1.554,1.082L69.5,62.763h-1.32a5.128,5.128,0,0,1-5.122-5.123V55.022h6.164a.947.947,0,1,0,0-1.894H63.055V50.51a5.128,5.128,0,0,1,5.122-5.123h1.257l-1.089,1.476a.947.947,0,1,0,1.524,1.125l1.92-2.6h5.418l-2.361,3.391A.947.947,0,1,0,76.4,49.861l3.115-4.474h5.339l-1.089,1.476a.947.947,0,1,0,1.524,1.125l1.92-2.6h5.418l-2.362,3.391a.947.947,0,1,0,1.555,1.082l3.115-4.474h5.339l-1.089,1.476a.947.947,0,1,0,1.524,1.125l1.92-2.6h.725a5.128,5.128,0,0,1,5.122,5.123v2.618H73.658a.947.947,0,1,0,0,1.894h34.819V57.64a5.128,5.128,0,0,1-5.123,5.123Z" transform="translate(-61.161 0)" fill="#fff"/>
  <path id="Path_685" data-name="Path 685" d="M153.456,110.7a14.018,14.018,0,0,0,2.394,2.733,15.361,15.361,0,0,0,3.092,2.116l0,0a17.166,17.166,0,0,0,15.607,0l0,0a15.364,15.364,0,0,0,3.092-2.116,14.008,14.008,0,0,0,2.394-2.733v0a12.264,12.264,0,0,0,0-13.8h0a14.009,14.009,0,0,0-2.394-2.733,15.365,15.365,0,0,0-3.092-2.116l0,0a17.166,17.166,0,0,0-15.607,0,14.925,14.925,0,0,0-5.491,4.853,12.264,12.264,0,0,0,0,13.793l0,0Zm2.676-13.837a12.772,12.772,0,0,1,3.214-2.727l1.755,1.551-.062,1.035a.917.917,0,0,0,.322.742l2.514,2.222a5.463,5.463,0,0,0-.993.7,4.974,4.974,0,0,0-.785.879l-2.515-2.223a1.191,1.191,0,0,0-.84-.285l-1.171.055-1.755-1.551C155.889,97.16,155.928,97.108,156.132,96.86Zm16.328-.14-.062-1.035,1.755-1.551a12.368,12.368,0,0,1,3.531,3.121l-1.755,1.551-1.171-.055a1.179,1.179,0,0,0-.84.285l-2.514,2.222a5.012,5.012,0,0,0-.787-.878,5.466,5.466,0,0,0-.993-.7l2.514-2.222A.918.918,0,0,0,172.461,96.72Zm4.906,14.016a12.648,12.648,0,0,1-3.213,2.726l-1.755-1.551.062-1.035a.917.917,0,0,0-.322-.742l-2.514-2.222a5.46,5.46,0,0,0,.993-.7h0a5.019,5.019,0,0,0,.787-.878l2.514,2.222a1.18,1.18,0,0,0,.84.285l1.171-.055,1.755,1.551c-.071.09-.113.146-.318.394Zm-16.328.14.062,1.035-1.755,1.551a12.737,12.737,0,0,1-3.531-3.121l1.755-1.551,1.171.055a1.185,1.185,0,0,0,.84-.285l2.515-2.223a4.973,4.973,0,0,0,.785.879,5.462,5.462,0,0,0,.993.7l-2.514,2.222A.917.917,0,0,0,161.039,110.876Zm5.711-9.96a3.467,3.467,0,0,1,2.306.844,2.652,2.652,0,0,1,0,4.076h0a3.571,3.571,0,0,1-4.611,0,2.654,2.654,0,0,1,0-4.076A3.467,3.467,0,0,1,166.75,100.916Zm12.053,7.652-1.659-1.466a1.18,1.18,0,0,0-.84-.285l-1.171.055-2.939-2.6a4.483,4.483,0,0,0,0-.953l2.939-2.6,1.171.055a1.18,1.18,0,0,0,.84-.285l1.659-1.466A10.435,10.435,0,0,1,178.8,108.568ZM154.7,99.028l1.659,1.466a1.188,1.188,0,0,0,.84.285l1.171-.055,2.942,2.6a4.309,4.309,0,0,0,0,.949l-2.942,2.6-1.171-.055a1.189,1.189,0,0,0-.84.285l-1.659,1.466A10.434,10.434,0,0,1,154.7,99.028Zm6.656,15.422,1.659-1.466a.917.917,0,0,0,.322-.742l-.062-1.035,2.939-2.6a6.5,6.5,0,0,0,1.079,0l2.939,2.6-.062,1.035a.917.917,0,0,0,.322.742l1.659,1.466A14.79,14.79,0,0,1,161.353,114.45Zm10.794-21.3-1.659,1.466a.917.917,0,0,0-.322.742l.062,1.035-2.939,2.6a6.489,6.489,0,0,0-1.079,0l-2.939-2.6.062-1.035a.917.917,0,0,0-.322-.742l-1.659-1.466a14.773,14.773,0,0,1,10.795,0Z" transform="translate(-141.94 -80.045)" fill="#6594ce"/>
</svg>
