<svg id="icon7" xmlns="http://www.w3.org/2000/svg" width="63.654" height="64.657" viewBox="0 0 63.654 64.657">
  <path id="Path_696" data-name="Path 696" d="M4.31,64.653H34.481a4.279,4.279,0,0,0,2.142-.582c-2.786-.951.746-19.832.746-19.832a10.775,10.775,0,0,0-9.353-5.447H24.783V36.636a14.037,14.037,0,0,0,8.451-10.864A5.379,5.379,0,0,0,33.4,15.193v-3.34A11.867,11.867,0,0,0,21.551,0h-4.31A11.867,11.867,0,0,0,5.388,11.853V15.2A5.4,5.4,0,0,0,2.1,17.31a5.471,5.471,0,0,0-.734,4.969,5.261,5.261,0,0,0,4.184,3.5,14.1,14.1,0,0,0,8.454,10.835v2.18H10.775A10.787,10.787,0,0,0,0,49.567V60.342A4.31,4.31,0,0,0,4.31,64.653Zm20.473-8.62h5.388v2.155H24.783Zm5.388-2.155H24.783V50.645h5.388Zm-5.388,6.465h5.388V62.5H24.783Zm5.388-11.853H24.783V46.334h5.388ZM22.628,62.5H16.163V44.151a5.28,5.28,0,0,0,6.465,0Zm-8.62-8.62H8.62V50.645h5.388ZM8.62,56.032h5.388v2.155H8.62Zm5.388-7.543H8.62V46.334h5.388ZM8.62,60.342h5.388V62.5H8.62ZM36.636,49.567l-.372,7.285a4.289,4.289,0,0,0-1.707,4.317,4.194,4.194,0,0,0,.457,1.253,2.155,2.155,0,0,1-.533.075H32.326V42.113A8.62,8.62,0,0,1,36.636,49.567ZM30.171,41.23v2.949H24.783V40.947h3.233a8.57,8.57,0,0,1,2.155.283Zm5.388-20.757A3.233,3.233,0,0,1,33.4,23.508V17.439A3.233,3.233,0,0,1,35.559,20.473ZM17.241,2.155h4.31a9.709,9.709,0,0,1,9.7,9.7v1.371A26.8,26.8,0,0,0,19.4,10.775,26.8,26.8,0,0,0,7.543,13.224V11.853a9.709,9.709,0,0,1,9.7-9.7ZM30.583,15.3l-1.2,1.2a2.593,2.593,0,0,1-2.562.61,23.227,23.227,0,0,0-7.425-.947,23.211,23.211,0,0,0-7.424.953,2.586,2.586,0,0,1-2.563-.61l-1.2-1.2A24.529,24.529,0,0,1,19.4,12.931,24.529,24.529,0,0,1,30.583,15.3ZM3.417,21.6a3.34,3.34,0,0,1,.431-3.03A3.233,3.233,0,0,1,5.4,17.445l.027,6.087A3.11,3.11,0,0,1,3.417,21.6Zm4.169,3.087L7.555,17.7l.33.33a4.733,4.733,0,0,0,4.79,1.123,21.276,21.276,0,0,1,6.722-.833,21.292,21.292,0,0,1,6.723.834,4.546,4.546,0,0,0,1.488.244,4.7,4.7,0,0,0,3.3-1.367l.342-.342v6.019a11.853,11.853,0,0,1-23.663.986ZM19.4,37.714a13.966,13.966,0,0,0,3.233-.391v2.546a3.233,3.233,0,0,1-6.465,0V37.315A13.781,13.781,0,0,0,19.4,37.714Zm-5.388,3.233v3.233H8.62V41.23a8.57,8.57,0,0,1,2.155-.283ZM2.155,49.567a8.62,8.62,0,0,1,4.31-7.454V62.5H4.31a2.155,2.155,0,0,1-2.155-2.155Z" fill="#383839"/>
  <path id="Path_697" data-name="Path 697" d="M36.624,64.071a4.2,4.2,0,0,0,1.215.477,4.292,4.292,0,0,0,3.5-.727,1.02,1.02,0,0,1,.913-.167,23.779,23.779,0,0,0,7.315,1,23.8,23.8,0,0,0,7.318-1,1.009,1.009,0,0,1,.912.168,4.278,4.278,0,0,0,2.537.831,4.51,4.51,0,0,0,.961-.108,4.31,4.31,0,0,0,1.576-7.7.991.991,0,0,1-.373-.809v-7.55a12.951,12.951,0,0,0-9.121-12.356,5.372,5.372,0,0,0,1.579-3.807v-4.31A2.155,2.155,0,0,0,52.8,25.861H50.645a2.155,2.155,0,0,0-1.865,1.078H46.334a2.155,2.155,0,0,0-2.155,2.155v3.233a5.372,5.372,0,0,0,1.579,3.807,12.977,12.977,0,0,0-8.389,8.105c-.043.741-.273.54-.541,2.5C36.65,48.126,36.624,64.071,36.624,64.071Zm9.711-31.744V29.094h2.155v1.078a1.078,1.078,0,1,0,2.155,0V28.016H52.8v4.31a3.233,3.233,0,1,1-6.465,0ZM38.792,48.489a10.775,10.775,0,0,1,21.551,0v7.55a3.144,3.144,0,0,0,1.27,2.563,2.155,2.155,0,0,1-.777,3.84,2.184,2.184,0,0,1-1.768-.362,3.176,3.176,0,0,0-2.854-.475,21.679,21.679,0,0,1-6.646.891,21.659,21.659,0,0,1-6.644-.891,3.058,3.058,0,0,0-.957-.152,3.216,3.216,0,0,0-1.9.626A2.155,2.155,0,1,1,37.522,58.6a3.143,3.143,0,0,0,1.269-2.562ZM36.624,64.071l.013-8.031a.99.99,0,0,1-.372.812,4.289,4.289,0,0,0-1.707,4.317,4.194,4.194,0,0,0,.457,1.253C34.841,62.469,35.75,63.834,36.624,64.071Z" transform="translate(-1)" fill="#55bc70"/>
</svg>
