<?xml version="1.0" encoding="UTF-8"?>
<svg id="Warstwa_2" data-name="Warstwa 2" xmlns="http://www.w3.org/2000/svg" viewBox="0 0 2464.67 1325.49">
  <defs>
    <style>
      .cls-1 {
        fill: none;
        stroke: #7f7f7f;
        stroke-miterlimit: 10;
        stroke-width: .25px;
      }

      .cls-2 {
        fill: #d4efb1;
      }

      .cls-3 {
        fill: #8ac43f;
      }
    </style>
  </defs>
  <g id="lineGrey">
    <polyline class="cls-1" points="115.98 749.36 105.95 787 68.24 732.68 115.98 749.36"/>
    <polyline class="cls-1" points="505.45 1030.42 546.83 1015.71 536.87 1047.1 505.45 1030.42"/>
    <polyline class="cls-1" points="2217.88 447.93 2293.68 476.17 2252.66 499.97 2217.88 447.93"/>
    <polyline class="cls-1" points="2364.47 1089.13 2364.47 1048.42 2397.88 1093.69 2364.47 1089.13"/>
    <polyline class="cls-1" points="1681.12 121.31 1710.91 93.56 1700.55 148.86 1681.12 121.31"/>
    <polyline class="cls-1" points="1156.53 157.62 1166.82 118.24 1187.7 170.48 1156.53 157.62"/>
    <line class="cls-1" x1="935.76" y1="1030.42" x2="966.11" y2="942.14"/>
    <line class="cls-1" x1="1013.06" y1="1213.87" x2="1111.76" y2="1202.7"/>
    <line class="cls-1" x1="2228.01" y1="888.77" x2="2288.86" y2="967.28"/>
    <line class="cls-1" x1="2333.31" y1="295.82" x2="2388.5" y2="336.71"/>
    <line class="cls-1" x1="943.92" y1="848.62" x2="881.07" y2="857.15"/>
    <line class="cls-1" x1="664.76" y1="733.61" x2="679.29" y2="694.92"/>
    <line class="cls-1" x1="2389.32" y1="717.12" x2="2428.52" y2="662.22"/>
  </g>
  <g id="dotGrey">
    <path class="cls-3" d="M2402.37,1092.9c.44,2.48-1.22,4.85-3.7,5.29-2.48,.44-4.85-1.22-5.29-3.7s1.22-4.85,3.7-5.29c2.48-.44,4.85,1.22,5.29,3.7Z"/>
    <path class="cls-3" d="M2368.96,1088.34c.44,2.48-1.22,4.85-3.7,5.29-2.48,.44-4.85-1.22-5.29-3.7-.44-2.48,1.22-4.85,3.7-5.29,2.48-.44,4.85,1.22,5.29,3.7Z"/>
    <path class="cls-3" d="M1289.37,473.02c.44,2.48-1.22,4.85-3.7,5.29-2.48,.44-4.85-1.22-5.29-3.7-.44-2.48,1.22-4.85,3.7-5.29,2.48-.44,4.85,1.22,5.29,3.7Z"/>
    <path class="cls-3" d="M970.6,941.35c.44,2.48-1.22,4.85-3.7,5.29-2.48,.44-4.85-1.22-5.29-3.7-.44-2.48,1.22-4.85,3.7-5.29,2.48-.44,4.85,1.22,5.29,3.7Z"/>
    <path class="cls-3" d="M1937.2,1066.89c.44,2.48-1.22,4.85-3.7,5.29-2.48,.44-4.85-1.22-5.29-3.7-.44-2.48,1.22-4.85,3.7-5.29,2.48-.44,4.85,1.22,5.29,3.7Z"/>
    <path class="cls-3" d="M2368.96,1047.63c.44,2.48-1.22,4.85-3.7,5.29-2.48,.44-4.85-1.22-5.29-3.7s1.22-4.85,3.7-5.29c2.48-.44,4.85,1.22,5.29,3.7Z"/>
    <path class="cls-3" d="M1704.19,151.61c-1.52,2.01-4.38,2.41-6.39,.89-2.01-1.52-2.41-4.38-.89-6.39,1.52-2.01,4.38-2.41,6.39-.89,2.01,1.52,2.41,4.38,.89,6.39Z"/>
    <path class="cls-3" d="M1714.56,96.31c-1.52,2.01-4.38,2.41-6.39,.89-2.01-1.52-2.41-4.38-.89-6.39,1.52-2.01,4.38-2.41,6.39-.89,2.01,1.52,2.41,4.38,.89,6.39Z"/>
    <path class="cls-3" d="M1192.24,170.86c-.2,2.51-2.41,4.38-4.92,4.18-2.51-.2-4.38-2.41-4.18-4.92,.21-2.51,2.41-4.38,4.92-4.18,2.51,.2,4.38,2.41,4.18,4.92Z"/>
    <path class="cls-3" d="M1161.08,157.99c-.21,2.51-2.41,4.38-4.92,4.18-2.51-.2-4.38-2.41-4.18-4.92,.21-2.51,2.41-4.38,4.92-4.18s4.38,2.41,4.18,4.92Z"/>
    <path class="cls-3" d="M1267.19,993.04c.44,2.48-1.22,4.85-3.7,5.29-2.48,.44-4.85-1.22-5.29-3.7-.44-2.48,1.22-4.85,3.7-5.29,2.48-.44,4.85,1.22,5.29,3.7Z"/>
    <path class="cls-3" d="M1233.99,1254.3c.44,2.48-1.22,4.85-3.7,5.29-2.48,.44-4.85-1.22-5.29-3.7-.44-2.48,1.22-4.85,3.7-5.29,2.48-.44,4.85,1.22,5.29,3.7Z"/>
    <path class="cls-3" d="M1071.26,346.94c.44,2.48-1.22,4.85-3.7,5.29-2.48,.44-4.85-1.22-5.29-3.7-.44-2.48,1.22-4.85,3.7-5.29,2.48-.44,4.85,1.22,5.29,3.7Z"/>
    <path class="cls-3" d="M1038.03,290.47c.44,2.48-1.22,4.85-3.7,5.29-2.48,.44-4.85-1.22-5.29-3.7-.44-2.48,1.22-4.85,3.7-5.29,2.48-.44,4.85,1.22,5.29,3.7Z"/>
    <path class="cls-3" d="M2255.71,254.58c.44,2.48-1.22,4.85-3.7,5.29-2.48,.44-4.85-1.22-5.29-3.7-.44-2.48,1.22-4.85,3.7-5.29,2.48-.44,4.85,1.22,5.29,3.7Z"/>
    <path class="cls-3" d="M1882.66,1169.61c.44,2.48-1.22,4.85-3.7,5.29-2.48,.44-4.85-1.22-5.29-3.7s1.22-4.85,3.7-5.29c2.48-.44,4.85,1.22,5.29,3.7Z"/>
    <path class="cls-3" d="M1116.25,1201.91c.44,2.48-1.22,4.85-3.7,5.29s-4.85-1.22-5.29-3.7c-.44-2.48,1.22-4.85,3.7-5.29,2.48-.44,4.85,1.22,5.29,3.7Z"/>
    <path class="cls-3" d="M2422.39,785.79c.44,2.48-1.22,4.85-3.7,5.29-2.48,.44-4.85-1.22-5.29-3.7-.44-2.48,1.22-4.85,3.7-5.29,2.48-.44,4.85,1.22,5.29,3.7Z"/>
    <path class="cls-3" d="M69.53,735.55c-1.59,.71-3.45,0-4.16-1.58-.71-1.59,0-3.45,1.58-4.16,1.59-.71,3.45,0,4.16,1.58,.71,1.59,0,3.45-1.58,4.16Z"/>
    <path class="cls-3" d="M2337.81,295.03c.44,2.48-1.22,4.85-3.7,5.29-2.48,.44-4.85-1.22-5.29-3.7-.44-2.48,1.22-4.85,3.7-5.29,2.48-.44,4.85,1.22,5.29,3.7Z"/>
    <path class="cls-3" d="M2222.38,447.13c.44,2.48-1.22,4.85-3.7,5.29-2.48,.44-4.85-1.22-5.29-3.7-.44-2.48,1.22-4.85,3.7-5.29,2.48-.44,4.85,1.22,5.29,3.7Z"/>
    <path class="cls-3" d="M2240.92,780.84c.44,2.48-1.22,4.85-3.7,5.29-2.48,.44-4.85-1.22-5.29-3.7-.44-2.48,1.22-4.85,3.7-5.29,2.48-.44,4.85,1.22,5.29,3.7Z"/>
    <path class="cls-3" d="M107.24,789.87c-1.59,.71-3.45,0-4.16-1.58s0-3.45,1.58-4.16c1.59-.71,3.45,0,4.16,1.58s0,3.45-1.58,4.16Z"/>
    <path class="cls-3" d="M1690.13,220.75c.44,2.48-1.22,4.85-3.7,5.29-2.48,.44-4.85-1.22-5.29-3.7-.44-2.48,1.22-4.85,3.7-5.29s4.85,1.22,5.29,3.7Z"/>
    <path class="cls-3" d="M988.76,434.26c.44,2.48-1.22,4.85-3.7,5.29s-4.85-1.22-5.29-3.7c-.44-2.48,1.22-4.85,3.7-5.29,2.48-.44,4.85,1.22,5.29,3.7Z"/>
    <path class="cls-3" d="M1402.51,518.27c.44,2.48-1.22,4.85-3.7,5.29-2.48,.44-4.85-1.22-5.29-3.7s1.22-4.85,3.7-5.29c2.48-.44,4.85,1.22,5.29,3.7Z"/>
    <path class="cls-3" d="M2156.01,534.06c2.11,1.37,2.72,4.2,1.35,6.31s-4.2,2.72-6.31,1.35-2.72-4.2-1.35-6.31,4.2-2.72,6.31-1.35Z"/>
    <path class="cls-3" d="M2326.96,901.86c.44,2.48-1.22,4.85-3.7,5.29-2.48,.44-4.85-1.22-5.29-3.7s1.22-4.85,3.7-5.29c2.48-.44,4.85,1.22,5.29,3.7Z"/>
    <path class="cls-3" d="M1779.8,719.99c.44,2.48-1.22,4.85-3.7,5.29-2.48,.44-4.85-1.22-5.29-3.7-.44-2.48,1.22-4.85,3.7-5.29,2.48-.44,4.85,1.22,5.29,3.7Z"/>
    <path class="cls-3" d="M940.26,1029.63c.44,2.48-1.22,4.85-3.7,5.29-2.48,.44-4.85-1.22-5.29-3.7-.44-2.48,1.22-4.85,3.7-5.29,2.48-.44,4.85,1.22,5.29,3.7Z"/>
    <path class="cls-3" d="M931.07,623.3c.81,4.58-2.25,8.95-6.83,9.75-4.58,.81-8.95-2.25-9.75-6.83-.81-4.58,2.25-8.95,6.83-9.75,4.58-.81,8.95,2.25,9.75,6.83Z"/>
    <path class="cls-3" d="M1787.22,174.63c.81,4.58-2.25,8.95-6.83,9.75-4.58,.81-8.95-2.25-9.75-6.83-.81-4.58,2.25-8.95,6.83-9.75,4.58-.81,8.95,2.25,9.75,6.83Z"/>
    <path class="cls-3" d="M2244.72,1130.47c.81,4.58-2.25,8.95-6.83,9.75-4.58,.81-8.95-2.25-9.75-6.83-.81-4.58,2.25-8.95,6.83-9.75,4.58-.81,8.95,2.25,9.75,6.83Z"/>
    <path class="cls-3" d="M2152.25,694.22c.81,4.58-2.25,8.95-6.83,9.75-4.58,.81-8.95-2.25-9.75-6.83-.81-4.58,2.25-8.95,6.83-9.75,4.58-.81,8.95,2.25,9.75,6.83Z"/>
    <circle class="cls-3" cx="1739.97" cy="1063.59" r="8.42" transform="translate(-129.52 1878.28) rotate(-54.98)"/>
    <path class="cls-3" d="M543.09,1046.01c.6,3.43-1.69,6.7-5.12,7.31-3.43,.6-6.7-1.69-7.31-5.12s1.69-6.7,5.12-7.31c3.43-.6,6.7,1.69,7.31,5.12Z"/>
    <path class="cls-3" d="M1021.35,1212.41c.81,4.58-2.25,8.95-6.83,9.75-4.58,.81-8.95-2.25-9.75-6.83s2.25-8.95,6.83-9.75c4.58-.81,8.95,2.25,9.75,6.83Z"/>
    <path class="cls-3" d="M2291.87,970.71c-1.89,1.66-4.78,1.48-6.44-.42-1.66-1.89-1.48-4.78,.42-6.44,1.89-1.66,4.78-1.48,6.44,.42,1.66,1.89,1.48,4.78-.42,6.44Z"/>
    <circle class="cls-3" cx="2228.01" cy="888.77" r="8.42" transform="translate(-161.15 1102.91) rotate(-26.87)"/>
    <path class="cls-3" d="M830.68,832.22c.81,4.58-2.25,8.95-6.83,9.75s-8.95-2.25-9.75-6.83c-.81-4.58,2.25-8.95,6.83-9.75,4.58-.81,8.95,2.25,9.75,6.83Z"/>
    <path class="cls-3" d="M1154.3,999.54c.81,4.58-2.25,8.95-6.83,9.75-4.58,.81-8.95-2.25-9.75-6.83s2.25-8.95,6.83-9.75c4.58-.81,8.95,2.25,9.75,6.83Z"/>
    <path class="cls-3" d="M1586.67,942.04c.81,4.58-2.25,8.95-6.83,9.75s-8.95-2.25-9.75-6.83c-.81-4.58,2.25-8.95,6.83-9.75,4.58-.81,8.95,2.25,9.75,6.83Z"/>
    <path class="cls-3" d="M1035.85,482.76c.81,4.58-2.25,8.95-6.83,9.75-4.58,.81-8.95-2.25-9.75-6.83-.81-4.58,2.25-8.95,6.83-9.75,4.58-.81,8.95,2.25,9.75,6.83Z"/>
    <path class="cls-3" d="M1631.02,216.66c.81,4.58-2.25,8.95-6.83,9.75-4.58,.81-8.95-2.25-9.75-6.83-.81-4.58,2.25-8.95,6.83-9.75,4.58-.81,8.95,2.25,9.75,6.83Z"/>
    <path class="cls-3" d="M1476.71,29.47c.81,4.58-2.25,8.95-6.83,9.75-4.58,.81-8.95-2.25-9.75-6.83-.81-4.58,2.25-8.95,6.83-9.75,4.58-.81,8.95,2.25,9.75,6.83Z"/>
    <path class="cls-3" d="M553.05,1014.61c.6,3.43-1.69,6.7-5.12,7.31-3.43,.6-6.7-1.69-7.31-5.12-.6-3.43,1.69-6.7,5.12-7.31,3.43-.6,6.7,1.69,7.31,5.12Z"/>
    <path class="cls-3" d="M118.37,754.66c-2.92,1.32-6.36,.02-7.68-2.91-1.32-2.92-.02-6.36,2.91-7.68,2.92-1.32,6.36-.02,7.68,2.91,1.32,2.92,.02,6.36-2.91,7.68Z"/>
    <path class="cls-3" d="M1780.64,230.47c.44,2.48-1.22,4.85-3.7,5.29-2.48,.44-4.85-1.22-5.29-3.7-.44-2.48,1.22-4.85,3.7-5.29,2.48-.44,4.85,1.22,5.29,3.7Z"/>
    <path class="cls-3" d="M1892.8,196.71c.81,4.58-2.25,8.95-6.83,9.75-4.58,.81-8.95-2.25-9.75-6.83-.81-4.58,2.25-8.95,6.83-9.75,4.58-.81,8.95,2.25,9.75,6.83Z"/>
    <path class="cls-3" d="M2396.8,335.25c.81,4.58-2.25,8.95-6.83,9.75s-8.95-2.25-9.75-6.83c-.81-4.58,2.25-8.95,6.83-9.75,4.58-.81,8.95,2.25,9.75,6.83Z"/>
    <path class="cls-3" d="M2296.13,969.5c.81,4.58-2.25,8.95-6.83,9.75-4.58,.81-8.95-2.25-9.75-6.83-.81-4.58,2.25-8.95,6.83-9.75,4.58-.81,8.95,2.25,9.75,6.83Z"/>
    <path class="cls-3" d="M830.91,368.46c.44,2.48-1.22,4.85-3.7,5.29-2.48,.44-4.85-1.22-5.29-3.7-.44-2.48,1.22-4.85,3.7-5.29s4.85,1.22,5.29,3.7Z"/>
    <path class="cls-3" d="M914.67,1122.3c.44,2.48-1.22,4.85-3.7,5.29-2.48,.44-4.85-1.22-5.29-3.7-.44-2.48,1.22-4.85,3.7-5.29,2.48-.44,4.85,1.22,5.29,3.7Z"/>
    <path class="cls-3" d="M53.96,626.56c.44,2.48-1.22,4.85-3.7,5.29s-4.85-1.22-5.29-3.7c-.44-2.48,1.22-4.85,3.7-5.29,2.48-.44,4.85,1.22,5.29,3.7Z"/>
    <path class="cls-3" d="M594.51,687.82c.81,4.58-2.25,8.95-6.83,9.75-4.58,.81-8.95-2.25-9.75-6.83s2.25-8.95,6.83-9.75,8.95,2.25,9.75,6.83Z"/>
    <path class="cls-3" d="M2298.18,475.38c.44,2.48-1.22,4.85-3.7,5.29-2.48,.44-4.85-1.22-5.29-3.7s1.22-4.85,3.7-5.29c2.48-.44,4.85,1.22,5.29,3.7Z"/>
    <path class="cls-3" d="M2209.59,232.56c.44,2.48-1.22,4.85-3.7,5.29-2.48,.44-4.85-1.22-5.29-3.7-.44-2.48,1.22-4.85,3.7-5.29s4.85,1.22,5.29,3.7Z"/>
    <path class="cls-3" d="M1685.62,120.52c.44,2.48-1.22,4.85-3.7,5.29s-4.85-1.22-5.29-3.7c-.44-2.48,1.22-4.85,3.7-5.29,2.48-.44,4.85,1.22,5.29,3.7Z"/>
    <path class="cls-3" d="M2388.43,221.75c.44,2.48-1.22,4.85-3.7,5.29-2.48,.44-4.85-1.22-5.29-3.7-.44-2.48,1.22-4.85,3.7-5.29,2.48-.44,4.85,1.22,5.29,3.7Z"/>
    <path class="cls-3" d="M2464.6,603.33c.44,2.48-1.22,4.85-3.7,5.29-2.48,.44-4.85-1.22-5.29-3.7-.44-2.48,1.22-4.85,3.7-5.29,2.48-.44,4.85,1.22,5.29,3.7Z"/>
    <path class="cls-3" d="M1483.31,209.53c.81,4.58-2.25,8.95-6.83,9.75-4.58,.81-8.95-2.25-9.75-6.83s2.25-8.95,6.83-9.75c4.58-.81,8.95,2.25,9.75,6.83Z"/>
    <path class="cls-3" d="M1636.22,79.84c.81,4.58-2.25,8.95-6.83,9.75-4.58,.81-8.95-2.25-9.75-6.83s2.25-8.95,6.83-9.75c4.58-.81,8.95,2.25,9.75,6.83Z"/>
    <path class="cls-3" d="M2260.95,498.51c.81,4.58-2.25,8.95-6.83,9.75-4.58,.81-8.95-2.25-9.75-6.83s2.25-8.95,6.83-9.75c4.58-.81,8.95,2.25,9.75,6.83Z"/>
    <path class="cls-3" d="M1991.72,1177.6c.81,4.58-2.25,8.95-6.83,9.75-4.58,.81-8.95-2.25-9.75-6.83-.81-4.58,2.25-8.95,6.83-9.75s8.95,2.25,9.75,6.83Z"/>
    <path class="cls-3" d="M511.66,1029.32c.6,3.43-1.69,6.7-5.12,7.31s-6.7-1.69-7.31-5.12c-.6-3.43,1.69-6.7,5.12-7.31,3.43-.6,6.7,1.69,7.31,5.12Z"/>
    <path class="cls-3" d="M1260.63,855.71c-4.51-1.14-7.24-5.72-6.1-10.23,1.14-4.51,5.72-7.24,10.23-6.1,4.51,1.14,7.24,5.72,6.1,10.23-1.14,4.51-5.72,7.24-10.23,6.1Z"/>
    <path class="cls-3" d="M1297.93,1069.67c-4.51-1.14-7.24-5.72-6.1-10.23,1.14-4.51,5.72-7.24,10.23-6.1,4.51,1.14,7.24,5.72,6.1,10.23-1.14,4.51-5.72,7.24-10.23,6.1Z"/>
    <path class="cls-3" d="M190.98,606.88c-4.51-1.14-7.24-5.72-6.1-10.23,1.14-4.51,5.72-7.24,10.23-6.1,4.51,1.14,7.24,5.72,6.1,10.23-1.14,4.51-5.72,7.24-10.23,6.1Z"/>
    <path class="cls-3" d="M417.52,882.19c.81,4.58-2.25,8.95-6.83,9.75-4.58,.81-8.95-2.25-9.75-6.83-.81-4.58,2.25-8.95,6.83-9.75,4.58-.81,8.95,2.25,9.75,6.83Z"/>
    <path class="cls-3" d="M1038.03,223.53c.81,4.58-2.25,8.95-6.83,9.75-4.58,.81-8.95-2.25-9.75-6.83-.81-4.58,2.25-8.95,6.83-9.75s8.95,2.25,9.75,6.83Z"/>
    <path class="cls-3" d="M759.33,375.93c.81,4.58-2.25,8.95-6.83,9.75-4.58,.81-8.95-2.25-9.75-6.83-.81-4.58,2.25-8.95,6.83-9.75,4.58-.81,8.95,2.25,9.75,6.83Z"/>
    <path class="cls-3" d="M535.63,843.97c.44,2.48-1.22,4.85-3.7,5.29s-4.85-1.22-5.29-3.7c-.44-2.48,1.22-4.85,3.7-5.29,2.48-.44,4.85,1.22,5.29,3.7Z"/>
    <path class="cls-3" d="M1196.05,736.41c.81,4.58-2.25,8.95-6.83,9.75-4.58,.81-8.95-2.25-9.75-6.83-.81-4.58,2.25-8.95,6.83-9.75,4.58-.81,8.95,2.25,9.75,6.83Z"/>
    <path class="cls-3" d="M1025.25,731.25c.44,2.48-1.22,4.85-3.7,5.29-2.48,.44-4.85-1.22-5.29-3.7-.44-2.48,1.22-4.85,3.7-5.29s4.85,1.22,5.29,3.7Z"/>
    <path class="cls-3" d="M270.42,752.74c.44,2.48-1.22,4.85-3.7,5.29-2.48,.44-4.85-1.22-5.29-3.7-.44-2.48,1.22-4.85,3.7-5.29s4.85,1.22,5.29,3.7Z"/>
    <path class="cls-3" d="M1679.14,1157.29c.44,2.48-1.22,4.85-3.7,5.29-2.48,.44-4.85-1.22-5.29-3.7-.44-2.48,1.22-4.85,3.7-5.29s4.85,1.22,5.29,3.7Z"/>
    <path class="cls-3" d="M935.69,478.9c.44,2.48-1.22,4.85-3.7,5.29-2.48,.44-4.85-1.22-5.29-3.7-.44-2.48,1.22-4.85,3.7-5.29,2.48-.44,4.85,1.22,5.29,3.7Z"/>
    <path class="cls-3" d="M1240.8,449.07c2.11,1.37,2.72,4.2,1.35,6.31s-4.2,2.72-6.31,1.35-2.72-4.2-1.35-6.31c1.37-2.11,4.2-2.72,6.31-1.35Z"/>
    <path class="cls-3" d="M1787.04,506.11c2.11,1.37,2.72,4.2,1.35,6.31-1.37,2.11-4.2,2.72-6.31,1.35-2.11-1.37-2.72-4.2-1.35-6.31s4.2-2.72,6.31-1.35Z"/>
    <path class="cls-3" d="M1314.82,255.28c.44,2.48-1.22,4.85-3.7,5.29-2.48,.44-4.85-1.22-5.29-3.7-.44-2.48,1.22-4.85,3.7-5.29s4.85,1.22,5.29,3.7Z"/>
    <path class="cls-3" d="M1170.15,115.86c.44,2.48-1.22,4.85-3.7,5.29-2.48,.44-4.85-1.22-5.29-3.7-.44-2.48,1.22-4.85,3.7-5.29s4.85,1.22,5.29,3.7Z"/>
    <path class="cls-3" d="M789.67,547.74c.44,2.48-1.22,4.85-3.7,5.29-2.48,.44-4.85-1.22-5.29-3.7-.44-2.48,1.22-4.85,3.7-5.29,2.48-.44,4.85,1.22,5.29,3.7Z"/>
    <path class="cls-3" d="M749.82,452.11c.44,2.48-1.22,4.85-3.7,5.29-2.48,.44-4.85-1.22-5.29-3.7-.44-2.48,1.22-4.85,3.7-5.29,2.48-.44,4.85,1.22,5.29,3.7Z"/>
    <path class="cls-3" d="M826.88,460.51c.44,2.48-1.22,4.85-3.7,5.29s-4.85-1.22-5.29-3.7c-.44-2.48,1.22-4.85,3.7-5.29,2.48-.44,4.85,1.22,5.29,3.7Z"/>
    <path class="cls-3" d="M176.43,707.17c.44,2.48-1.22,4.85-3.7,5.29-2.48,.44-4.85-1.22-5.29-3.7-.44-2.48,1.22-4.85,3.7-5.29,2.48-.44,4.85,1.22,5.29,3.7Z"/>
    <path class="cls-3" d="M2114.78,442.26c.44,2.48-1.22,4.85-3.7,5.29-2.48,.44-4.85-1.22-5.29-3.7s1.22-4.85,3.7-5.29c2.48-.44,4.85,1.22,5.29,3.7Z"/>
  </g>
  <g id="splashDot">
    <path class="cls-2" d="M822.39,195.85c0,3.64-2.95,6.59-6.59,6.59s-6.59-2.95-6.59-6.59,2.95-6.59,6.59-6.59,6.59,2.95,6.59,6.59Z"/>
    <circle class="cls-2" cx="256.53" cy="832.75" r="2.43"/>
    <path class="cls-2" d="M319.31,854.97c0,1.57-1.27,2.84-2.84,2.84s-2.84-1.27-2.84-2.84,1.27-2.84,2.84-2.84,2.84,1.27,2.84,2.84Z"/>
    <path class="cls-2" d="M300.73,611.44c0,3.23-2.61,5.84-5.84,5.84s-5.84-2.61-5.84-5.84,2.61-5.84,5.84-5.84,5.84,2.61,5.84,5.84Z"/>
    <circle class="cls-2" cx="475.37" cy="712.45" r="4.86"/>
    <path class="cls-2" d="M553.66,732.51c0,2.96-2.4,5.37-5.37,5.37s-5.37-2.4-5.37-5.37,2.4-5.37,5.37-5.37,5.37,2.4,5.37,5.37Z"/>
    <path class="cls-2" d="M667.97,733.61c0,1.77-1.44,3.21-3.21,3.21s-3.21-1.44-3.21-3.21,1.44-3.21,3.21-3.21,3.21,1.44,3.21,3.21Z"/>
    <path class="cls-2" d="M692.28,704.98c0,2.28-1.85,4.13-4.13,4.13s-4.13-1.85-4.13-4.13,1.85-4.13,4.13-4.13,4.13,1.85,4.13,4.13Z"/>
    <path class="cls-2" d="M756.91,736.04c0,2.84-2.3,5.14-5.14,5.14s-5.14-2.3-5.14-5.14,2.3-5.14,5.14-5.14,5.14,2.3,5.14,5.14Z"/>
    <circle class="cls-2" cx="886.81" cy="749.6" r="2.62"/>
    <path class="cls-2" d="M1468.42,677.99c0,1.68-1.36,3.04-3.04,3.04s-3.04-1.36-3.04-3.04,1.36-3.04,3.04-3.04,3.04,1.36,3.04,3.04Z"/>
    <path class="cls-2" d="M1213.09,669.2c0,2.22-1.8,4.03-4.03,4.03s-4.03-1.8-4.03-4.03,1.8-4.03,4.03-4.03,4.03,1.8,4.03,4.03Z"/>
    <circle class="cls-2" cx="1529.59" cy="637.05" r="3.4"/>
    <path class="cls-2" d="M1256.36,620.72c0,2.99-2.42,5.42-5.42,5.42s-5.42-2.42-5.42-5.42,2.42-5.42,5.42-5.42,5.42,2.42,5.42,5.42Z"/>
    <path class="cls-2" d="M1798.32,465.86c0,2.99-2.42,5.42-5.42,5.42s-5.42-2.42-5.42-5.42,2.42-5.42,5.42-5.42,5.42,2.42,5.42,5.42Z"/>
    <path class="cls-2" d="M1480.83,565.33c0,2.91-2.36,5.27-5.27,5.27s-5.27-2.36-5.27-5.27,2.36-5.27,5.27-5.27,5.27,2.36,5.27,5.27Z"/>
    <circle class="cls-2" cx="905.06" cy="664.36" r="5.01"/>
    <path class="cls-2" d="M752.68,787.38c0,1.74-1.41,3.16-3.16,3.16s-3.16-1.41-3.16-3.16,1.41-3.16,3.16-3.16,3.16,1.41,3.16,3.16Z"/>
    <path class="cls-2" d="M622.28,577.14c0,3.29-2.66,5.95-5.95,5.95s-5.95-2.66-5.95-5.95,2.66-5.95,5.95-5.95,5.95,2.66,5.95,5.95Z"/>
    <circle class="cls-2" cx="637.76" cy="867.04" r="3.49"/>
    <path class="cls-2" d="M581.22,904.71c0,1.38-1.12,2.5-2.5,2.5s-2.5-1.12-2.5-2.5,1.12-2.5,2.5-2.5,2.5,1.12,2.5,2.5Z"/>
    <path class="cls-2" d="M508.62,898.06c0,1.75-1.42,3.18-3.18,3.18s-3.18-1.42-3.18-3.18,1.42-3.18,3.18-3.18,3.18,1.42,3.18,3.18Z"/>
    <path class="cls-2" d="M348.94,894.88c0,2.27-1.84,4.11-4.12,4.11s-4.11-1.84-4.11-4.11,1.84-4.11,4.11-4.11,4.12,1.84,4.12,4.11Z"/>
    <path class="cls-2" d="M211.71,1129.99c0,2.89-2.34,5.23-5.23,5.23s-5.23-2.34-5.23-5.23,2.34-5.23,5.23-5.23,5.23,2.34,5.23,5.23Z"/>
    <path class="cls-2" d="M487.74,755.19c0,2.43-1.97,4.41-4.41,4.41s-4.41-1.97-4.41-4.41,1.97-4.41,4.41-4.41,4.41,1.97,4.41,4.41Z"/>
    <path class="cls-2" d="M551.2,728.07c0,2.41-1.96,4.37-4.37,4.37s-4.37-1.96-4.37-4.37,1.96-4.37,4.37-4.37,4.37,1.96,4.37,4.37Z"/>
    <path class="cls-2" d="M616.33,702.48c0,3.29-2.66,5.95-5.95,5.95s-5.95-2.66-5.95-5.95,2.66-5.95,5.95-5.95,5.95,2.66,5.95,5.95Z"/>
    <circle class="cls-2" cx="679.29" cy="694.92" r="5.44"/>
    <path class="cls-2" d="M754.56,695.73c0,1.94-1.57,3.52-3.52,3.52s-3.52-1.57-3.52-3.52,1.57-3.52,3.52-3.52,3.52,1.57,3.52,3.52Z"/>
    <circle class="cls-2" cx="467.46" cy="671.66" r="2.47"/>
    <path class="cls-2" d="M859.15,796.52c0,3-2.43,5.43-5.43,5.43s-5.43-2.43-5.43-5.43,2.43-5.43,5.43-5.43,5.43,2.43,5.43,5.43Z"/>
    <circle class="cls-2" cx="881.07" cy="857.15" r="3.76"/>
    <path class="cls-2" d="M1096.39,978.29c0,2.08-1.68,3.76-3.76,3.76s-3.76-1.68-3.76-3.76,1.68-3.76,3.76-3.76,3.76,1.68,3.76,3.76Z"/>
    <path class="cls-2" d="M904.06,920.97c0,2.84-2.3,5.15-5.15,5.15s-5.15-2.3-5.15-5.15,2.3-5.15,5.15-5.15,5.15,2.3,5.15,5.15Z"/>
    <path class="cls-2" d="M927.68,984.37c0,1.45-1.18,2.63-2.63,2.63s-2.63-1.18-2.63-2.63,1.18-2.63,2.63-2.63,2.63,1.18,2.63,2.63Z"/>
    <path class="cls-2" d="M969.86,1033.16c0,1.79-1.45,3.24-3.24,3.24s-3.24-1.45-3.24-3.24,1.45-3.24,3.24-3.24,3.24,1.45,3.24,3.24Z"/>
    <path class="cls-2" d="M1195.12,1002.55c0,2.41-1.96,4.37-4.37,4.37s-4.37-1.96-4.37-4.37,1.96-4.37,4.37-4.37,4.37,1.96,4.37,4.37Z"/>
    <circle class="cls-2" cx="1207.65" cy="1057.49" r="3.45"/>
    <path class="cls-2" d="M1358.64,730.27c0,3.1-2.51,5.61-5.61,5.61s-5.61-2.51-5.61-5.61,2.51-5.61,5.61-5.61,5.61,2.51,5.61,5.61Z"/>
    <path class="cls-2" d="M1340.74,657.63c0,2.55-2.06,4.61-4.61,4.61s-4.61-2.06-4.61-4.61,2.06-4.61,4.61-4.61,4.61,2.06,4.61,4.61Z"/>
    <path class="cls-2" d="M1075.53,713.65c0,2.96-2.4,5.37-5.37,5.37s-5.37-2.4-5.37-5.37,2.4-5.37,5.37-5.37,5.37,2.4,5.37,5.37Z"/>
    <circle class="cls-2" cx="1504.07" cy="469.96" r="5.22"/>
    <path class="cls-2" d="M1798.63,865.3c0,2.35-1.9,4.25-4.25,4.25s-4.25-1.9-4.25-4.25,1.9-4.25,4.25-4.25,4.25,1.9,4.25,4.25Z"/>
    <path class="cls-2" d="M1963.09,712.04c0,2.43-1.97,4.39-4.39,4.39s-4.39-1.97-4.39-4.39,1.97-4.39,4.39-4.39,4.39,1.97,4.39,4.39Z"/>
    <circle class="cls-2" cx="1866.47" cy="749.92" r="4"/>
    <path class="cls-2" d="M2114.83,610.29c0,2.94-2.38,5.33-5.33,5.33s-5.33-2.38-5.33-5.33,2.38-5.33,5.33-5.33,5.33,2.38,5.33,5.33Z"/>
    <path class="cls-2" d="M1788.38,650.31c0,1.82-1.48,3.3-3.3,3.3s-3.3-1.48-3.3-3.3,1.48-3.3,3.3-3.3,3.3,1.48,3.3,3.3Z"/>
    <path class="cls-2" d="M1245.32,493.14c0,2.99-2.43,5.42-5.42,5.42s-5.42-2.43-5.42-5.42,2.43-5.42,5.42-5.42,5.42,2.43,5.42,5.42Z"/>
    <circle class="cls-2" cx="1284.88" cy="441.31" r="5.09"/>
    <path class="cls-2" d="M1269.98,350.76c0,2.34-1.9,4.24-4.24,4.24s-4.24-1.9-4.24-4.24,1.9-4.24,4.24-4.24,4.24,1.9,4.24,4.24Z"/>
    <path class="cls-2" d="M1331.27,307.06c0,2-1.62,3.63-3.63,3.63s-3.63-1.62-3.63-3.63,1.62-3.63,3.63-3.63,3.63,1.62,3.63,3.63Z"/>
    <path class="cls-2" d="M835.98,1173.71c0,2.36-1.92,4.28-4.28,4.28s-4.28-1.92-4.28-4.28,1.92-4.28,4.28-4.28,4.28,1.92,4.28,4.28Z"/>
    <path class="cls-2" d="M868.5,1107.19c0,2.23-1.81,4.04-4.04,4.04s-4.04-1.81-4.04-4.04,1.81-4.04,4.04-4.04,4.04,1.81,4.04,4.04Z"/>
    <path class="cls-2" d="M934.3,1073.18c0,1.35-1.1,2.45-2.45,2.45s-2.45-1.1-2.45-2.45,1.1-2.45,2.45-2.45,2.45,1.1,2.45,2.45Z"/>
    <path class="cls-2" d="M1000.57,1051.19c0,2.73-2.21,4.94-4.94,4.94s-4.94-2.21-4.94-4.94,2.21-4.94,4.94-4.94,4.94,2.21,4.94,4.94Z"/>
    <path class="cls-2" d="M1373.98,662.39c0,2.77-2.25,5.02-5.02,5.02s-5.02-2.25-5.02-5.02,2.25-5.02,5.02-5.02,5.02,2.25,5.02,5.02Z"/>
    <circle class="cls-2" cx="1194.55" cy="879.84" r="3.81"/>
    <circle class="cls-2" cx="1723.89" cy="847.55" r="2.91"/>
    <path class="cls-2" d="M1684.7,794.12c0,1.75-1.42,3.16-3.16,3.16s-3.16-1.42-3.16-3.16,1.42-3.16,3.16-3.16,3.16,1.42,3.16,3.16Z"/>
    <path class="cls-2" d="M982.68,800.06c0,1.37-1.11,2.47-2.47,2.47s-2.47-1.11-2.47-2.47,1.11-2.47,2.47-2.47,2.47,1.11,2.47,2.47Z"/>
    <circle class="cls-2" cx="1233.03" cy="577.14" r="3.44"/>
    <path class="cls-2" d="M1042.79,571.48c0,2.56-2.07,4.63-4.63,4.63s-4.63-2.07-4.63-4.63,2.07-4.63,4.63-4.63,4.63,2.07,4.63,4.63Z"/>
    <path class="cls-2" d="M1001.48,423.15c0,3.08-2.5,5.59-5.59,5.59s-5.59-2.5-5.59-5.59,2.5-5.59,5.59-5.59,5.59,2.5,5.59,5.59Z"/>
    <path class="cls-2" d="M1209.06,424.06c0,3.01-2.44,5.46-5.46,5.46s-5.46-2.44-5.46-5.46,2.44-5.46,5.46-5.46,5.46,2.44,5.46,5.46Z"/>
    <circle class="cls-2" cx="1200.93" cy="599.95" r="3.82"/>
    <path class="cls-2" d="M1753.99,627.35c0,2.5-2.03,4.53-4.53,4.53s-4.53-2.03-4.53-4.53,2.03-4.53,4.53-4.53,4.53,2.03,4.53,4.53Z"/>
    <circle class="cls-2" cx="1852.2" cy="535.81" r="2.68"/>
    <path class="cls-2" d="M1745.01,771.51c0,2.78-2.26,5.04-5.04,5.04s-5.04-2.26-5.04-5.04,2.26-5.04,5.04-5.04,5.04,2.26,5.04,5.04Z"/>
    <path class="cls-2" d="M1449.28,838.05c0,2.25-1.82,4.07-4.07,4.07s-4.07-1.82-4.07-4.07,1.82-4.07,4.07-4.07,4.07,1.82,4.07,4.07Z"/>
    <circle class="cls-2" cx="1418.96" cy="892.99" r="3.82"/>
    <circle class="cls-2" cx="994.19" cy="883.65" r="3.82"/>
    <path class="cls-2" d="M1666.86,894.27c0,1.78-1.44,3.22-3.22,3.22s-3.22-1.44-3.22-3.22,1.44-3.22,3.22-3.22,3.22,1.44,3.22,3.22Z"/>
    <path class="cls-2" d="M1647.34,785.65c0,2.55-2.06,4.61-4.61,4.61s-4.61-2.06-4.61-4.61,2.06-4.61,4.61-4.61,4.61,2.06,4.61,4.61Z"/>
    <circle class="cls-2" cx="1463.79" cy="760.19" r="4.76"/>
    <path class="cls-2" d="M946.73,848.62c0,1.55-1.26,2.81-2.81,2.81s-2.81-1.26-2.81-2.81,1.26-2.81,2.81-2.81,2.81,1.26,2.81,2.81Z"/>
    <path class="cls-2" d="M875.14,842.45c0,1.76-1.42,3.18-3.18,3.18s-3.18-1.42-3.18-3.18,1.42-3.18,3.18-3.18,3.18,1.42,3.18,3.18Z"/>
    <path class="cls-2" d="M809.63,852.41c0,2.41-1.96,4.37-4.37,4.37s-4.37-1.96-4.37-4.37,1.96-4.37,4.37-4.37,4.37,1.96,4.37,4.37Z"/>
    <path class="cls-2" d="M750.75,212.4c0,3-2.43,5.42-5.42,5.42s-5.42-2.43-5.42-5.42,2.43-5.42,5.42-5.42,5.42,2.43,5.42,5.42Z"/>
    <path class="cls-2" d="M460.01,595.68c0,2.49-2.02,4.51-4.51,4.51s-4.51-2.02-4.51-4.51,2.02-4.51,4.51-4.51,4.51,2.02,4.51,4.51Z"/>
    <circle class="cls-2" cx="578.09" cy="721.23" r="4.1"/>
    <circle class="cls-2" cx="511.57" cy="701.13" r="3.33"/>
    <path class="cls-2" d="M47.82,484.65c0,2.8-2.27,5.07-5.07,5.07s-5.07-2.27-5.07-5.07,2.27-5.07,5.07-5.07,5.07,2.27,5.07,5.07Z"/>
    <circle class="cls-2" cx="401.53" cy="641.27" r="4.46"/>
    <circle class="cls-2" cx="178.73" cy="765.18" r="5.99"/>
    <path class="cls-2" d="M124.14,799.22c0,2.76-2.23,4.99-4.99,4.99s-4.99-2.23-4.99-4.99,2.23-4.99,4.99-4.99,4.99,2.23,4.99,4.99Z"/>
    <path class="cls-2" d="M49.47,800.06c0,1.85-1.5,3.36-3.36,3.36s-3.36-1.5-3.36-3.36,1.5-3.36,3.36-3.36,3.36,1.5,3.36,3.36Z"/>
    <path class="cls-2" d="M6.35,823.35c0,1.75-1.42,3.18-3.18,3.18s-3.18-1.42-3.18-3.18,1.42-3.18,3.18-3.18,3.18,1.42,3.18,3.18Z"/>
    <circle class="cls-2" cx="71.11" cy="836.39" r="6.01"/>
    <path class="cls-2" d="M145.23,848.4c0,2.79-2.26,5.05-5.05,5.05s-5.05-2.26-5.05-5.05,2.26-5.05,5.05-5.05,5.05,2.26,5.05,5.05Z"/>
    <circle class="cls-2" cx="197.15" cy="886.81" r="4.11"/>
    <path class="cls-2" d="M270.06,899.59c0,1.69-1.37,3.05-3.05,3.05s-3.05-1.37-3.05-3.05,1.37-3.05,3.05-3.05,3.05,1.37,3.05,3.05Z"/>
    <path class="cls-2" d="M683.26,496.02c0,2.19-1.78,3.97-3.97,3.97s-3.97-1.78-3.97-3.97,1.78-3.97,3.97-3.97,3.97,1.78,3.97,3.97Z"/>
    <circle class="cls-2" cx="385.92" cy="973.59" r="3.44"/>
    <path class="cls-2" d="M426.86,1048.43c0,2.59-2.1,4.68-4.68,4.68s-4.68-2.1-4.68-4.68,2.1-4.68,4.68-4.68,4.68,2.1,4.68,4.68Z"/>
    <circle class="cls-2" cx="401.76" cy="1125.29" r="4.7"/>
    <path class="cls-2" d="M622.51,982.68c0,3.25-2.63,5.88-5.88,5.88s-5.88-2.63-5.88-5.88,2.63-5.88,5.88-5.88,5.88,2.63,5.88,5.88Z"/>
    <path class="cls-2" d="M600.31,1047.17c0,1.58-1.28,2.86-2.86,2.86s-2.86-1.28-2.86-2.86,1.28-2.86,2.86-2.86,2.86,1.28,2.86,2.86Z"/>
    <path class="cls-2" d="M667.47,1060.91c0,2.84-2.3,5.14-5.14,5.14s-5.14-2.3-5.14-5.14,2.3-5.14,5.14-5.14,5.14,2.3,5.14,5.14Z"/>
    <circle class="cls-2" cx="773.41" cy="996.37" r="4.63"/>
    <path class="cls-2" d="M827.96,968.15c0,1.56-1.26,2.82-2.82,2.82s-2.82-1.26-2.82-2.82,1.26-2.82,2.82-2.82,2.82,1.26,2.82,2.82Z"/>
    <path class="cls-2" d="M525.54,999.94c0,1.44-1.17,2.61-2.61,2.61s-2.61-1.17-2.61-2.61,1.17-2.61,2.61-2.61,2.61,1.17,2.61,2.61Z"/>
    <circle class="cls-2" cx="494.77" cy="941.02" r="5.5"/>
    <circle class="cls-2" cx="140.18" cy="643.78" r="4.51"/>
    <path class="cls-2" d="M988.67,649.26c0,2.68-2.18,4.86-4.86,4.86s-4.86-2.18-4.86-4.86,2.18-4.86,4.86-4.86,4.86,2.18,4.86,4.86Z"/>
    <circle class="cls-2" cx="1008.33" cy="710.55" r="5.37"/>
    <circle class="cls-2" cx="1173.2" cy="670.42" r="3.21"/>
    <path class="cls-2" d="M994.19,608.6c0,2.43-1.97,4.41-4.41,4.41s-4.41-1.97-4.41-4.41,1.97-4.41,4.41-4.41,4.41,1.97,4.41,4.41Z"/>
    <path class="cls-2" d="M1101.37,825.48c0,2.41-1.96,4.37-4.37,4.37s-4.37-1.96-4.37-4.37,1.96-4.37,4.37-4.37,4.37,1.96,4.37,4.37Z"/>
    <path class="cls-2" d="M1123.22,724.47c0,2.23-1.81,4.03-4.03,4.03s-4.03-1.81-4.03-4.03,1.81-4.03,4.03-4.03,4.03,1.81,4.03,4.03Z"/>
    <path class="cls-2" d="M1209.14,479.7c0,2.27-1.84,4.1-4.1,4.1s-4.1-1.84-4.1-4.1,1.84-4.1,4.1-4.1,4.1,1.84,4.1,4.1Z"/>
    <circle class="cls-2" cx="1020" cy="637.94" r="3.33"/>
    <path class="cls-2" d="M885.03,518.2c0,2.19-1.77,3.96-3.96,3.96s-3.96-1.77-3.96-3.96,1.78-3.96,3.96-3.96,3.96,1.77,3.96,3.96Z"/>
    <path class="cls-2" d="M108.33,1079.31c0,3.05-2.48,5.53-5.53,5.53s-5.53-2.48-5.53-5.53,2.48-5.53,5.53-5.53,5.53,2.48,5.53,5.53Z"/>
    <path class="cls-2" d="M570.16,636.39c0,1.48-1.2,2.69-2.69,2.69s-2.69-1.2-2.69-2.69,1.2-2.69,2.69-2.69,2.69,1.2,2.69,2.69Z"/>
    <path class="cls-2" d="M645.85,652.15c0,3.16-2.56,5.72-5.72,5.72s-5.72-2.56-5.72-5.72,2.56-5.72,5.72-5.72,5.72,2.56,5.72,5.72Z"/>
    <path class="cls-2" d="M710.86,638.83c0,2.19-1.78,3.97-3.97,3.97s-3.97-1.78-3.97-3.97,1.78-3.97,3.97-3.97,3.97,1.78,3.97,3.97Z"/>
    <path class="cls-2" d="M844.32,631.09c0,1.66-1.34,3-3,3s-3-1.34-3-3,1.34-3,3-3,3,1.34,3,3Z"/>
    <path class="cls-2" d="M887.02,620.72c0,3.29-2.66,5.95-5.95,5.95s-5.95-2.66-5.95-5.95,2.66-5.95,5.95-5.95,5.95,2.66,5.95,5.95Z"/>
    <path class="cls-2" d="M1428.21,573.95c0,1.37-1.11,2.47-2.47,2.47s-2.47-1.11-2.47-2.47,1.11-2.47,2.47-2.47,2.47,1.11,2.47,2.47Z"/>
    <path class="cls-2" d="M1202.98,554.43c0,3.24-2.62,5.86-5.86,5.86s-5.86-2.62-5.86-5.86,2.62-5.86,5.86-5.86,5.86,2.62,5.86,5.86Z"/>
    <path class="cls-2" d="M1475.02,535.81c0,3.1-2.51,5.62-5.62,5.62s-5.62-2.51-5.62-5.62,2.51-5.62,5.62-5.62,5.62,2.51,5.62,5.62Z"/>
    <path class="cls-2" d="M1411.3,496.02c0,2.41-1.95,4.36-4.36,4.36s-4.36-1.95-4.36-4.36,1.95-4.36,4.36-4.36,4.36,1.95,4.36,4.36Z"/>
    <path class="cls-2" d="M1008.33,435.58c0,1.45-1.18,2.63-2.63,2.63s-2.63-1.18-2.63-2.63,1.18-2.63,2.63-2.63,2.63,1.18,2.63,2.63Z"/>
    <circle class="cls-2" cx="989.79" cy="382.91" r="5.52"/>
    <path class="cls-2" d="M946.99,396.18c0,1.88-1.52,3.4-3.4,3.4s-3.4-1.52-3.4-3.4,1.52-3.4,3.4-3.4,3.4,1.52,3.4,3.4Z"/>
    <circle class="cls-2" cx="896.05" cy="443.69" r="3.72"/>
    <path class="cls-2" d="M832.01,473.3c0,1.44-1.17,2.61-2.61,2.61s-2.61-1.17-2.61-2.61,1.17-2.61,2.61-2.61,2.61,1.17,2.61,2.61Z"/>
    <path class="cls-2" d="M786.85,522.27c0,2.61-2.12,4.73-4.73,4.73s-4.73-2.12-4.73-4.73,2.12-4.73,4.73-4.73,4.73,2.12,4.73,4.73Z"/>
    <path class="cls-2" d="M1610.59,391.55c0,2.88-2.33,5.21-5.21,5.21s-5.21-2.33-5.21-5.21,2.33-5.21,5.21-5.21,5.21,2.33,5.21,5.21Z"/>
    <circle class="cls-2" cx="2167.18" cy="750.78" r="5.08"/>
    <path class="cls-2" d="M2145.02,1065.44c0,3.32-2.69,6-6,6s-6-2.69-6-6,2.69-6,6-6,6,2.69,6,6Z"/>
    <path class="cls-2" d="M1863.19,1096.97c0,2.17-1.76,3.93-3.93,3.93s-3.93-1.76-3.93-3.93,1.76-3.93,3.93-3.93,3.93,1.76,3.93,3.93Z"/>
    <path class="cls-2" d="M2351.39,803.85c0,2.29-1.86,4.15-4.15,4.15s-4.15-1.86-4.15-4.15,1.86-4.15,4.15-4.15,4.15,1.86,4.15,4.15Z"/>
    <circle class="cls-2" cx="2383.7" cy="808.25" r="5.39"/>
    <path class="cls-2" d="M2447.23,721.23c0,2.23-1.81,4.05-4.05,4.05s-4.05-1.81-4.05-4.05,1.81-4.05,4.05-4.05,4.05,1.81,4.05,4.05Z"/>
    <path class="cls-2" d="M2210.75,367.29c0,3.12-2.53,5.66-5.66,5.66s-5.66-2.53-5.66-5.66,2.53-5.66,5.66-5.66,5.66,2.53,5.66,5.66Z"/>
    <path class="cls-2" d="M1584.04,445.06c0,3.12-2.53,5.66-5.66,5.66s-5.66-2.53-5.66-5.66,2.53-5.66,5.66-5.66,5.66,2.53,5.66,5.66Z"/>
    <circle class="cls-2" cx="2428.52" cy="662.22" r="4.4"/>
    <circle class="cls-2" cx="2386.9" cy="593.25" r="2.43"/>
    <path class="cls-2" d="M2391.89,717.12c0,1.42-1.15,2.56-2.56,2.56s-2.56-1.15-2.56-2.56,1.15-2.56,2.56-2.56,2.56,1.15,2.56,2.56Z"/>
    <path class="cls-2" d="M2178.6,555.59c0,3.25-2.63,5.88-5.88,5.88s-5.88-2.63-5.88-5.88,2.63-5.88,5.88-5.88,5.88,2.63,5.88,5.88Z"/>
    <circle class="cls-2" cx="2353.59" cy="850.46" r="2.97"/>
    <circle class="cls-2" cx="2134.48" cy="1108.97" r="4.53"/>
    <path class="cls-2" d="M2198.97,888.48c0,2.4-1.94,4.34-4.34,4.34s-4.34-1.94-4.34-4.34,1.94-4.34,4.34-4.34,4.34,1.94,4.34,4.34Z"/>
    <circle class="cls-2" cx="2237.26" cy="946.63" r="5.91"/>
    <circle class="cls-2" cx="1815.71" cy="5.91" r="5.91"/>
    <circle class="cls-2" cx="2115.05" cy="951.11" r="4.77"/>
    <path class="cls-2" d="M2178.27,918.84c0,3.06-2.48,5.55-5.55,5.55s-5.55-2.48-5.55-5.55,2.48-5.55,5.55-5.55,5.55,2.48,5.55,5.55Z"/>
    <circle class="cls-2" cx="1942.66" cy="1030.21" r="5.67"/>
    <circle class="cls-2" cx="1929.99" cy="45.75" r="5.67"/>
    <path class="cls-2" d="M2033.27,958.7c0,1.37-1.11,2.49-2.49,2.49s-2.49-1.11-2.49-2.49,1.11-2.49,2.49-2.49,2.49,1.11,2.49,2.49Z"/>
    <path class="cls-2" d="M2009,1235.12c0,1.61-1.31,2.92-2.92,2.92s-2.92-1.31-2.92-2.92,1.31-2.92,2.92-2.92,2.92,1.31,2.92,2.92Z"/>
    <path class="cls-2" d="M1830,1320.23c0,2.91-2.36,5.27-5.27,5.27s-5.27-2.36-5.27-5.27,2.36-5.27,5.27-5.27,5.27,2.36,5.27,5.27Z"/>
    <path class="cls-2" d="M2058.15,1046.89c0,1.79-1.45,3.23-3.23,3.23s-3.23-1.45-3.23-3.23,1.45-3.23,3.23-3.23,3.23,1.45,3.23,3.23Z"/>
    <path class="cls-2" d="M2045.36,1000.86c0,1.59-1.29,2.87-2.87,2.87s-2.87-1.29-2.87-2.87,1.29-2.87,2.87-2.87,2.87,1.29,2.87,2.87Z"/>
    <circle class="cls-2" cx="1991.99" cy="951.91" r="3.95"/>
    <circle class="cls-2" cx="2027.15" cy="518.2" r="3.23"/>
    <path class="cls-2" d="M2269.02,657.87c0,2.98-2.42,5.4-5.4,5.4s-5.4-2.42-5.4-5.4,2.42-5.4,5.4-5.4,5.4,2.42,5.4,5.4Z"/>
    <path class="cls-2" d="M2192.83,694.68c0,2.27-1.84,4.11-4.11,4.11s-4.11-1.84-4.11-4.11,1.84-4.11,4.11-4.11,4.11,1.84,4.11,4.11Z"/>
    <path class="cls-2" d="M2412.43,487.72c0,2.23-1.81,4.04-4.04,4.04s-4.04-1.81-4.04-4.04,1.81-4.04,4.04-4.04,4.04,1.81,4.04,4.04Z"/>
    <path class="cls-2" d="M1968.01,211.06c0,2.47-2,4.47-4.47,4.47s-4.47-2-4.47-4.47,2-4.47,4.47-4.47,4.47,2,4.47,4.47Z"/>
  </g>
</svg>