<?xml version="1.0" encoding="UTF-8"?>
<svg xmlns="http://www.w3.org/2000/svg" viewBox="0 0 1011.24 977.59">
  <defs>
    <style>
      .cls-1, .cls-2 {
        fill: #fff;
      }

      .cls-3 {
        fill: none;
        stroke: #fff;
        stroke-linejoin: round;
        stroke-width: 2px;
      }

      .cls-2 {
        mix-blend-mode: overlay;
        opacity: .51;
      }

      .cls-4 {
        isolation: isolate;
      }
    </style>
  </defs>
  <g class="cls-4">
    <g id="Warstwa_2" data-name="Warstwa 2">
      <g id="shade">
        <polygon class="cls-2" points="360.84 43.29 366.81 44.39 416.31 53.49 454.33 99.72 475.64 140.67 431.24 99.68 360.84 43.29"/>
        <polygon class="cls-2" points="404.3 71.56 460.24 113.12 475.64 140.67 501.27 182.34 438.13 283.36 449.12 172.5 404.3 71.56"/>
        <polygon class="cls-2" points="704.18 34.5 732.72 79.01 757.16 127.03 754.75 164.87 730.67 107.13 712.14 75.62 704.18 34.5"/>
        <polygon class="cls-2" points="838.33 92.8 757.16 127.03 742.37 180.12 816.42 136.12 838.33 92.8"/>
        <polygon class="cls-2" points="561.07 293.18 602.94 273.06 645.74 265.26 681.24 265.26 720.54 296.11 669.91 293.18 561.07 293.18"/>
        <polygon class="cls-2" points="465.12 293.18 602.12 241.07 656.9 265.26 669.91 293.18 622.02 293.18 561.07 293.18 465.12 293.18"/>
        <polygon class="cls-2" points="392.12 361 431.24 296.11 455.68 253.19 484.15 209.73 427.33 239.48 400.58 283.17 392.12 361"/>
        <polygon class="cls-2" points="372.31 393.4 392.12 361 416.31 322.33 370.29 338.81 372.31 393.4"/>
        <polygon class="cls-2" points="277.16 338.81 325.68 349.95 370.29 366.03 392.12 361 372.31 393.4 277.16 338.81"/>
        <polygon class="cls-2" points="520.94 209.73 569.48 232.85 575.97 274.21 465.12 293.18 501.22 275.63 541.87 253.19 520.94 209.73"/>
        <polygon class="cls-2" points="267.14 92.8 310.75 54.52 360.84 43.29 416.31 53.49 442.25 85.02 352 71.89 267.14 92.8"/>
        <polygon class="cls-2" points="247.92 632.69 195.45 705.72 340.23 653 247.92 632.69"/>
        <polygon class="cls-2" points="370.29 639.51 297.11 636.7 247.92 632.69 260.25 685.68 309.1 689.1 437.33 644.64 370.29 639.51"/>
        <polygon class="cls-2" points="297.11 636.7 381.94 680.54 455.68 666.34 491.31 645.89 297.11 636.7"/>
        <polygon class="cls-2" points="219.56 672.16 219.56 730.89 184.19 783.03 174.14 812.93 165.09 755.32 195.45 705.72 219.56 672.16"/>
        <polygon class="cls-2" points="454.33 645.17 491.31 645.89 488.9 713.14 489.97 762.95 472.82 681.84 454.33 645.17"/>
        <polygon class="cls-2" points="174.14 744.04 195.45 705.72 244.3 664.22 239.65 718.09 174.14 744.04"/>
        <polygon class="cls-2" points="7.61 382.37 105.95 385.61 62.04 411.93 7.61 382.37"/>
        <polygon class="cls-2" points="73.13 433.8 114.69 434.15 104.28 411.93 7.61 382.37 73.13 433.8"/>
        <polygon class="cls-2" points="30.98 502.62 73.13 433.8 99.89 422.24 78.54 482.93 14.75 546.11 30.98 502.62"/>
        <polygon class="cls-2" points="30.98 502.62 51.1 540.23 59.13 645.89 28.76 603.27 15.27 551.15 30.98 502.62"/>
        <polygon class="cls-2" points="174.14 387.42 105.95 385.61 47.1 383.67 128.74 405.48 174.14 387.42"/>
        <polygon class="cls-2" points="247.92 632.69 285.95 567.26 247.92 592.07 247.92 632.69"/>
        <polygon class="cls-2" points="151.13 387.42 174.14 387.42 240.37 388.19 257.77 425 176.59 411.11 105.95 385.61 151.13 387.42"/>
        <polygon class="cls-2" points="982.21 533.73 966.61 583.79 928.52 617.52 938.51 576.32 971.37 530.66 971.37 469.59 982.21 533.73"/>
        <polygon class="cls-2" points="782.15 632.69 821.1 635.18 895.54 630.98 928.52 617.52 946.63 600.97 881.95 603.27 829.91 622.56 782.15 632.69"/>
        <polygon class="cls-2" points="736.13 556.98 828.02 567.26 915.5 628.07 821.1 635.18 782.15 632.69 762.8 603.27 736.13 556.98"/>
        <polygon class="cls-2" points="762.8 603.27 774.17 567.26 748.56 533.73 692.85 486.72 719.1 530.66 762.8 603.27"/>
        <polygon class="cls-2" points="730.8 552.65 730.8 497.12 654.07 424.33 730.8 552.65"/>
        <polygon class="cls-2" points="673.8 456.99 686.33 421.65 743.54 364.78 654.07 424.33 673.8 456.99"/>
        <polygon class="cls-2" points="686.33 402.85 733.51 387.42 774.33 355.47 812.49 322.33 686.33 402.85"/>
        <polygon class="cls-2" points="583.88 770.25 598.54 803.46 631.09 861.63 641.53 823.99 616.9 786.5 583.88 770.25"/>
        <polygon class="cls-2" points="612.7 828.78 653.05 849.03 665.52 869.9 694.85 969.02 656.9 910.2 631.09 861.63 612.7 835.43 612.7 828.78"/>
        <polygon class="cls-2" points="707.14 890.29 694.85 969.02 669.45 929.66 692.43 869.9 720.54 861.63 707.14 890.29"/>
        <polygon class="cls-2" points="795.17 888.75 707.14 890.29 686.33 866.07 748.56 851.92 839.38 870.98 795.17 888.75"/>
        <polygon class="cls-2" points="875.72 824.69 839.38 870.98 795.17 888.75 812.04 849.03 875.72 824.69"/>
        <polygon class="cls-2" points="894.75 777.21 921.09 705.72 872.88 759.36 852.22 793.42 894.75 777.21"/>
        <polygon class="cls-2" points="946.63 648.29 900.63 759.07 897.04 727.08 946.63 648.29"/>
        <polygon class="cls-2" points="699.21 549.7 696.93 637.47 701.15 657.71 674.98 642.01 699.21 549.7"/>
        <polygon class="cls-2" points="782.15 632.69 742.45 636.02 696.93 637.47 681.24 641.31 719.42 664.69 782.15 632.69"/>
        <polygon class="cls-2" points="608.68 10.49 664.42 10.49 704.18 34.5 732.72 79.01 692.85 43.29 510.94 21.45 608.68 10.49"/>
        <polygon class="cls-2" points="285.95 567.26 359.73 611.37 328.5 556.3 266.93 553.53 267.91 600.97 285.95 567.26"/>
        <polygon class="cls-2" points="170.08 787.09 174.14 812.93 215.35 853.84 246.96 873.8 208.52 830.45 179.82 769.98 170.08 787.09"/>
        <polygon class="cls-2" points="315.56 884.74 314.23 853.84 350.69 838.05 487.49 883.4 315.56 884.74"/>
        <polygon class="cls-2" points="397.75 883.4 487.49 883.4 487.28 866.32 457.98 857.98 397.75 883.4"/>
      </g>
      <g id="line1">
        <polyline class="cls-3" points="816.42 136.12 795.17 113.12 838.33 92.8 816.42 136.12 757.16 127.03 693.89 227.29 748.56 172.5 784.61 188.94 763.02 227.29 748.56 172.5 656.9 192.04 724.42 136.12 656.9 127.54 693.89 227.29 763.02 227.29 743.54 260.05 693.89 227.29 681.24 265.26 743.54 260.05 720.54 296.11 681.24 265.26 669.91 293.18 720.54 296.11 693.89 227.29 656.9 192.04 656.9 127.54 613.24 104.5 663.44 53.49 533.65 69.17 613.24 104.5 583.88 158.33 656.9 127.54 569.48 209.73 583.88 158.33 656.9 192.04 569.48 209.73 597.83 246.35 656.9 192.04 681.24 265.26 622.5 294.11 669.91 293.18 597.83 246.35 622.5 294.11 561.07 293.18 597.83 246.35 522.39 293.18 515.01 332.34 569.48 349.03"/>
        <polyline class="cls-3" points="510.94 21.45 566.39 15.9 574.11 54.52 510.94 21.45 533.65 69.17 574.11 54.52 608.68 10.49 566.39 15.9 663.44 53.49 608.68 10.49 664.42 10.49 663.44 53.49 704.18 34.5 664.42 10.49 574.11 54.52 663.44 53.49 707.14 71.56 704.18 34.5 732.72 79.01 707.14 71.56 696.93 120.11 732.72 79.01 757.16 127.03 696.93 120.11 663.44 53.49 656.9 127.54 696.93 120.11 724.42 136.12 757.16 127.03 748.56 172.5 724.42 136.12 784.61 188.94 757.16 127.03 795.17 113.12 784.61 188.94"/>
        <polyline class="cls-3" points="115.82 199.72 189.69 238.34 194.66 294.11 166 279.65 215.35 260.05 230.58 315.83 239.65 290.32 194.66 294.11 230.58 315.83 277.16 338.81 285.95 296.11 239.65 290.32 277.16 338.81 345.51 332.34 285.95 296.11 313.23 361 345.51 332.34 392.12 361 394.78 290.32 431.24 296.11 392.12 361 372.31 393.4 340.23 375.89 392.12 361 313.23 361 340.23 375.89"/>
        <polyline class="cls-3" points="522.39 293.18 465.12 293.18 501.22 275.63 522.39 293.18 541.87 253.19 501.22 275.63 561.07 293.18 541.87 253.19 597.83 246.35 520.94 209.73 541.87 253.19 569.48 209.73 520.94 209.73 583.88 158.33 533.65 69.17 510.94 111.02 583.88 158.33 501.27 182.34 520.94 209.73 510.94 111.02 475.64 140.67 501.27 182.34 510.94 111.02 470.23 83.74 533.65 69.17 464.25 27.97 510.94 21.45 470.23 83.74 416.31 34.5 464.25 27.97 411.83 82.34 416.31 34.5 360.84 43.29 411.83 82.34 470.23 83.74 475.64 140.67 430.66 132.37 411.83 82.34 363.21 79.41 360.84 43.29 310.75 54.52 363.21 79.41 335.67 106.78 310.75 54.52 267.14 92.8 256.05 54.52 215.35 69.17 267.14 92.8 335.67 106.78 430.66 132.37 345.51 147.71 411.83 82.34 413.01 195.12 430.66 132.37 501.27 182.34 455.68 255.29 430.66 132.37 361.5 188.94 413.01 195.12 431.24 221.62 501.27 182.34 413.01 195.12 411.83 246.35 455.68 255.29 431.24 221.62 336.87 265.26 361.5 188.94 411.83 246.35 431.24 296.11 455.68 255.29 394.78 290.32 411.83 246.35 336.87 265.26 345.51 332.34 394.78 290.32 336.87 265.26 298.86 209.73 361.5 188.94 345.51 147.71 335.67 106.78 281.96 116.81 267.14 92.8 345.51 147.71 281.96 116.81 246.96 127.03 281.96 147.71 281.96 116.81 231.88 158.33 246.96 127.03 298.86 209.73 281.96 147.71 345.51 147.71 298.86 209.73 250.48 215.3 281.96 147.71 231.88 158.33 250.48 215.3 208.68 200.53 231.88 158.33 298.86 209.73 285.95 296.11 336.87 265.26 239.65 290.32 250.48 215.3 285.95 296.11 215.35 260.05 208.68 200.53 189.69 238.34"/>
        <line class="cls-3" x1="277.16" y1="338.81" x2="279.99" y2="371.89"/>
        <polyline class="cls-3" points="7.61 382.37 105.95 385.61 73.13 433.8 7.61 382.37 138.53 430.48 105.95 385.61 174.14 387.42 138.53 430.48 202.34 425 174.14 387.42 240.37 388.19 202.34 425 184.19 459.31 138.53 430.48 143.44 488.99 73.13 433.8 138.53 430.48 242.79 461.24 202.34 425 257.77 425 240.37 388.19 242.79 461.24 279.99 464.21 257.77 425 184.19 459.31 242.79 461.24 239.65 488.99 279.99 464.21 304.11 511.02 239.65 488.99 184.19 459.31 143.44 488.99 239.65 488.99 246.96 529.04 304.11 511.02 277.16 529.36 246.96 529.04 279.99 464.21"/>
        <polyline class="cls-3" points="328.5 556.3 359.73 612.65 285.95 567.26 328.5 556.3 246.96 529.04 221.35 564.63 285.95 567.26 246.96 529.04 143.44 488.99 143.44 570.64 246.96 529.04 247.92 632.69 285.95 567.26 217.11 615.38 221.35 564.63 143.44 570.64 100.72 502.62 143.44 488.99 82.45 601.66 75.83 540.23 100.72 502.62 73.13 433.8 30.98 502.62 68.47 488.99 73.13 433.8"/>
        <polyline class="cls-3" points="277.16 529.36 328.5 556.3 357.83 516.52"/>
        <polyline class="cls-3" points="246.96 873.8 215.35 853.84 313.23 830.64 355.76 783.03 255.89 793.42 215.35 853.84"/>
        <polyline class="cls-3" points="488.9 713.14 434.15 748.55 440.4 721.79 489.97 762.95 440.4 808.3 434.15 748.55 390.01 748.15 359.73 709.86 307.42 759.07 307.42 714.62 232.36 734.7 284.16 664.22 307.42 714.62 255.89 793.42 232.36 734.7 196.38 752.68 230.31 766.87 232.36 734.7 307.42 759.07 255.89 793.42 230.31 766.87 174.14 812.93 196.38 752.68 215.35 853.84 174.14 812.93 255.89 793.42 313.23 830.64 307.42 759.07 355.76 783.03 390.01 748.15 440.4 808.3 491.31 830.64 489.97 762.95 355.76 783.03 376.68 840.5 440.4 808.3 487.49 883.4 491.31 830.64 397.75 883.4 487.49 883.4 376.68 840.5 397.75 883.4 313.23 830.64 376.68 840.5 315.56 884.74 313.23 830.64 246.96 873.8 230.31 926.5"/>
        <polyline class="cls-3" points="68.47 488.99 75.83 540.23 30.98 502.62 12.49 548.89 75.83 540.23 82.45 601.66 12.49 548.89 28.76 603.27 82.45 601.66 143.44 570.64 160.86 645.89 82.45 601.66 59.13 645.89 28.76 603.27 104.28 653.01 94.89 699.99 9.21 680.9 34.14 703.03 94.89 699.99 160.86 645.89 104.28 653.01 195.45 705.72 209.66 664.22 160.86 645.89 195.45 705.72 244.3 664.22 209.66 664.22 217.11 615.38 160.86 645.89 126.49 737.48 94.89 699.99 195.45 705.72 156.88 748.66 126.49 737.48 174.14 812.93 156.88 748.66 196.38 752.68 195.45 705.72 232.36 734.7 244.3 664.22 247.92 632.69 297.11 636.7 244.3 664.22 284.16 664.22 297.11 636.7 359.73 709.86 307.42 714.62 297.11 636.7 370.29 639.51 359.73 709.86 420.6 666.34 370.29 639.51 437.33 644.64 420.6 666.34 440.4 721.79 463.09 681.84 420.6 666.34 491.31 645.89 437.33 644.64 463.09 681.84 488.9 713.14 491.31 645.89 359.73 709.86 440.4 721.79 488.9 713.14 545.24 692.54"/>
        <polyline class="cls-3" points="654.07 424.33 704.18 389.7 704.18 425.93 654.07 424.33 673.8 456.99 704.18 425.93 748.56 427.2 704.18 389.7 767.53 349.95 772.01 391.39 704.18 389.7 736.13 466.98 748.56 427.2 772.01 391.39 834.61 361 767.53 349.95 812.49 322.33 834.61 361 854.78 294.11 812.49 322.33 894.75 359.8 854.78 294.11 876.13 396.94 894.75 359.8 938.51 335.7 972.77 359.8 894.75 359.8 834.61 361 876.13 396.94 818.14 416.01 834.61 361 851.24 473.68 876.13 441.97 818.14 416.01 772.01 391.39 784.61 469.59 818.14 416.01 932.71 414.77 876.13 396.94 876.13 441.97 932.71 414.77 971.37 469.59 876.13 441.97 954.11 491.57 971.37 469.59 982.21 533.73 954.11 491.57 851.24 473.68 933.12 540.23 954.11 491.57 966.61 583.79 982.21 533.73 933.12 540.23 966.61 583.79 913.32 564.63 933.12 540.23 851.24 541.79 851.24 473.68 784.61 469.59 736.13 466.98 692.85 486.72 673.8 456.99 736.13 466.98 740.09 516.52 692.85 486.72 663.44 497.12"/>
        <polyline class="cls-3" points="740.09 516.52 719.1 530.66 736.13 556.98 771.22 541.79 719.1 530.66 807.7 589.54 771.22 541.79 784.61 469.59 740.09 516.52 851.24 541.79 782.15 469.59 807.7 589.54 851.24 541.79 881.95 603.27 913.32 564.63 851.24 541.79 819.74 637.47 762.8 603.27 736.13 556.98 851.24 541.79"/>
        <polyline class="cls-3" points="807.7 589.54 762.8 603.27 782.15 632.69 819.74 637.47 881.95 603.27 807.7 589.54 822.37 639.51 902.23 644.64 881.95 603.27 966.61 583.79 902.23 644.64 861.09 657.71 819.74 637.47 837 681.84 861.09 657.71 875.72 703.61 902.23 644.64 946.63 648.29 966.61 583.79 819.74 637.47 773.27 685.03 782.15 632.69 727.11 681.84 742.45 636.02 782.15 632.69 837 681.84 773.27 685.03 727.11 681.84 696.93 637.47 742.45 636.02 686.33 672.16 696.93 637.47 699.21 549.7 663.44 611.37 696.93 637.47 631.09 669.12 663.44 611.37 686.33 672.16 727.11 681.84 736.13 713.14 773.27 685.03 801.13 721.79 837 681.84 875.72 703.61 946.63 648.29 921.09 705.72 875.72 703.61 801.13 721.79 784.61 771.81 736.13 713.14 801.13 721.79 852.22 764.6 875.72 703.61 894.75 777.21 921.09 705.72 852.22 766.87 784.61 771.81 852.22 793.42 852.22 764.6 894.75 777.21 967.02 763.6 994.26 802.16 894.75 777.21 852.22 793.42 875.72 824.69 833.05 840.5 852.22 793.42 790.61 840.5 833.05 840.5 839.38 870.98 875.72 824.69 784.61 771.81 790.61 840.5 839.38 870.98 795.17 888.75 790.61 840.5 748.56 851.92 784.61 771.81 686.33 767.71 736.13 713.14 686.33 672.16 668.88 722.91 631.09 669.12 736.13 713.14 748.56 851.92 795.17 888.75 707.14 890.29 748.56 851.92 692.85 837.42 784.61 771.81 668.88 722.91 606.82 727.08 631.09 669.12 633.95 777.21 668.88 722.91 686.33 767.71 692.85 837.42 645.74 818.81 686.33 767.71 633.95 777.21 583.88 770.25 606.82 727.08 633.95 777.21 593.41 799.3 583.88 770.25 645.74 818.81 633.95 777.21 692.85 837.42 665.52 869.9 645.74 818.81 593.41 799.3 631.09 861.63 645.74 818.81 707.14 890.29 692.85 837.42 631.09 861.63 665.52 869.9 656.9 910.2 631.09 861.63 700.75 926.5 707.14 890.29 665.52 869.9 694.85 969.02 700.75 926.5 656.9 910.2 694.85 969.02"/>
        <line class="cls-3" x1="315.56" y1="884.74" x2="397.75" y2="883.4"/>
      </g>
      <g id="dot">
        <path class="cls-1" d="M232.97,763.6c1.81,1.47,2.09,4.13,.62,5.94-1.47,1.81-4.13,2.09-5.94,.62-1.81-1.47-2.09-4.13-.62-5.94,1.47-1.81,4.13-2.09,5.94-.62Z"/>
        <path class="cls-1" d="M33.83,597.03c3.45,2.8,3.97,7.86,1.17,11.3-2.8,3.45-7.86,3.97-11.3,1.17-3.45-2.8-3.97-7.86-1.17-11.3,2.8-3.45,7.86-3.97,11.3-1.17Z"/>
        <path class="cls-1" d="M147.03,484.57c2.44,1.98,2.81,5.56,.83,8.01-1.98,2.44-5.56,2.81-8.01,.83-2.44-1.98-2.81-5.56-.83-8.01,1.98-2.44,5.56-2.81,8.01-.83Z"/>
        <path class="cls-1" d="M70.73,486.21c1.54,1.25,1.77,3.51,.52,5.05-1.25,1.54-3.51,1.77-5.05,.52-1.54-1.25-1.77-3.51-.52-5.05,1.25-1.54,3.51-1.77,5.05-.52Z"/>
        <path class="cls-1" d="M14.75,546.11c1.54,1.25,1.77,3.51,.52,5.05-1.25,1.54-3.51,1.77-5.05,.52-1.54-1.25-1.77-3.51-.52-5.05,1.25-1.54,3.51-1.77,5.05-.52Z"/>
        <path class="cls-1" d="M200.56,699.43c3.48,2.82,4.01,7.93,1.19,11.41-2.82,3.48-7.93,4.01-11.41,1.19-3.48-2.82-4.01-7.93-1.19-11.41,2.82-3.48,7.93-4.01,11.41-1.19Z"/>
        <path class="cls-1" d="M313.63,751.42c4.23,3.43,4.87,9.64,1.44,13.86-3.43,4.23-9.64,4.87-13.86,1.44-4.23-3.43-4.87-9.64-1.44-13.86,3.43-4.23,9.64-4.87,13.86-1.44Z"/>
        <path class="cls-1" d="M551.48,684.85c4.25,3.45,4.9,9.69,1.45,13.93-3.45,4.25-9.69,4.9-13.93,1.45-4.25-3.45-4.9-9.69-1.45-13.93,3.45-4.25,9.69-4.9,13.93-1.45Z"/>
        <path class="cls-1" d="M468.26,675.47c3.52,2.86,4.06,8.03,1.2,11.55-2.86,3.52-8.03,4.06-11.55,1.2-3.52-2.86-4.06-8.03-1.2-11.55,2.86-3.52,8.03-4.06,11.55-1.2Z"/>
        <path class="cls-1" d="M99.14,694.76c2.89,2.35,3.33,6.59,.98,9.48s-6.59,3.33-9.48,.98c-2.89-2.35-3.33-6.59-.98-9.48,2.35-2.89,6.59-3.33,9.48-.98Z"/>
        <path class="cls-1" d="M212.34,660.92c1.82,1.48,2.1,4.15,.62,5.97-1.48,1.82-4.15,2.1-5.97,.62-1.82-1.48-2.1-4.15-.62-5.97,1.48-1.82,4.15-2.1,5.97-.62Z"/>
        <path class="cls-1" d="M261.23,786.84c3.63,2.95,4.19,8.29,1.24,11.92-2.95,3.63-8.29,4.19-11.92,1.24s-4.19-8.29-1.24-11.92c2.95-3.63,8.29-4.19,11.92-1.24Z"/>
        <path class="cls-1" d="M402.44,877.62c3.19,2.59,3.68,7.28,1.09,10.47-2.59,3.19-7.28,3.68-10.47,1.09-3.19-2.59-3.68-7.28-1.09-10.47,2.59-3.19,7.28-3.68,10.47-1.09Z"/>
        <path class="cls-1" d="M131.67,731.1c3.52,2.86,4.06,8.04,1.2,11.56-2.86,3.52-8.04,4.06-11.56,1.2-3.52-2.86-4.06-8.04-1.2-11.56s8.04-4.06,11.56-1.2Z"/>
        <path class="cls-1" d="M220.91,846.98c3.79,3.07,4.37,8.64,1.29,12.42-3.07,3.79-8.64,4.37-12.42,1.29-3.79-3.07-4.37-8.64-1.29-12.42,3.07-3.79,8.64-4.37,12.42-1.29Z"/>
        <circle class="cls-1" cx="488.9" cy="713.14" r="10.19" transform="translate(-43.77 32.07) rotate(-3.6)"/>
        <path class="cls-1" d="M111.42,378.88c3.72,3.02,4.28,8.47,1.27,12.19-3.02,3.72-8.47,4.28-12.19,1.27s-4.28-8.47-1.27-12.19c3.02-3.72,8.47-4.28,12.19-1.27Z"/>
        <path class="cls-1" d="M365.8,702.38c4.13,3.35,4.76,9.42,1.41,13.55-3.35,4.13-9.42,4.76-13.55,1.41-4.13-3.35-4.76-9.42-1.41-13.55s9.42-4.76,13.55-1.41Z"/>
        <path class="cls-1" d="M302.19,630.45c3.45,2.8,3.98,7.87,1.18,11.33-2.8,3.45-7.87,3.98-11.33,1.18-3.45-2.8-3.98-7.87-1.18-11.33,2.8-3.45,7.87-3.98,11.33-1.18Z"/>
        <path class="cls-1" d="M395.48,741.41c3.72,3.02,4.29,8.48,1.27,12.2-3.02,3.72-8.48,4.29-12.2,1.27-3.72-3.02-4.29-8.48-1.27-12.2s8.48-4.29,12.2-1.27Z"/>
        <circle class="cls-1" cx="246.96" cy="529.04" r="7.37" transform="translate(-333.4 592.77) rotate(-71.24)"/>
        <path class="cls-1" d="M308.75,505.3c3.16,2.56,3.64,7.2,1.08,10.36-2.56,3.16-7.2,3.64-10.36,1.08-3.16-2.56-3.64-7.2-1.08-10.36s7.2-3.64,10.36-1.08Z"/>
        <path class="cls-1" d="M331.43,552.7c1.99,1.62,2.29,4.54,.68,6.53-1.62,1.99-4.54,2.29-6.53,.68-1.99-1.62-2.29-4.54-.68-6.53,1.62-1.99,4.54-2.29,6.53-.68Z"/>
        <path class="cls-1" d="M362.65,607.76c1.99,1.62,2.29,4.54,.68,6.53-1.62,1.99-4.54,2.29-6.53,.68-1.99-1.62-2.29-4.54-.68-6.53,1.62-1.99,4.54-2.29,6.53-.68Z"/>
        <path class="cls-1" d="M281.12,333.93c2.69,2.19,3.11,6.14,.92,8.84-2.19,2.69-6.14,3.11-8.84,.92-2.69-2.19-3.11-6.14-.92-8.84,2.19-2.69,6.14-3.11,8.84-.92Z"/>
        <path class="cls-1" d="M361.7,511.75c2.63,2.14,3.03,6,.9,8.64-2.14,2.63-6,3.03-8.64,.9-2.63-2.14-3.03-6-.9-8.64s6-3.03,8.64-.9Z"/>
        <path class="cls-1" d="M262.25,419.48c3.05,2.47,3.51,6.95,1.04,10-2.47,3.05-6.95,3.51-10,1.04-3.05-2.47-3.51-6.95-1.04-10,2.47-3.05,6.95-3.51,10-1.04Z"/>
        <path class="cls-1" d="M395.98,356.25c2.62,2.13,3.02,5.98,.89,8.61s-5.98,3.02-8.61,.89-3.02-5.98-.89-8.61,5.98-3.02,8.61-.89Z"/>
        <circle class="cls-1" cx="167.43" cy="279.65" r="9.35" transform="translate(-121.63 129.05) rotate(-31.57)"/>
        <path class="cls-1" d="M238.5,150.17c4.51,3.66,5.2,10.28,1.54,14.79s-10.28,5.2-14.79,1.54c-4.51-3.66-5.2-10.28-1.54-14.79,3.66-4.51,10.28-5.2,14.79-1.54Z"/>
        <path class="cls-1" d="M214.71,193.1c4.1,3.33,4.73,9.36,1.4,13.46s-9.36,4.73-13.46,1.4-4.73-9.36-1.4-13.46c3.33-4.1,9.36-4.73,13.46-1.4Z"/>
        <path class="cls-1" d="M366.23,183.1c3.22,2.62,3.72,7.35,1.1,10.58-2.62,3.22-7.35,3.72-10.58,1.1s-3.72-7.35-1.1-10.58,7.35-3.72,10.58-1.1Z"/>
        <path class="cls-1" d="M421.44,28.18c3.49,2.83,4.02,7.96,1.19,11.45-2.83,3.49-7.96,4.02-11.45,1.19-3.49-2.83-4.02-7.96-1.19-11.45,2.83-3.49,7.96-4.02,11.45-1.19Z"/>
        <path class="cls-1" d="M367.57,74.04c2.97,2.41,3.42,6.76,1.01,9.73-2.41,2.97-6.76,3.42-9.73,1.01-2.97-2.41-3.42-6.76-1.01-9.73s6.76-3.42,9.73-1.01Z"/>
        <path class="cls-1" d="M365.2,37.92c2.97,2.41,3.42,6.76,1.01,9.73-2.41,2.97-6.76,3.42-9.73,1.01-2.97-2.41-3.42-6.76-1.01-9.73,2.41-2.97,6.76-3.42,9.73-1.01Z"/>
        <path class="cls-1" d="M121.1,193.22c3.59,2.92,4.14,8.19,1.22,11.78-2.92,3.59-8.19,4.14-11.78,1.22-3.59-2.92-4.14-8.19-1.22-11.78,2.92-3.59,8.19-4.14,11.78-1.22Z"/>
        <path class="cls-1" d="M505.55,177.06c2.91,2.37,3.36,6.65,.99,9.56-2.37,2.91-6.65,3.36-9.56,.99s-3.36-6.65-.99-9.56c2.37-2.91,6.65-3.36,9.56-.99Z"/>
        <path class="cls-1" d="M588.16,153.05c2.91,2.37,3.36,6.65,.99,9.56-2.37,2.91-6.65,3.36-9.56,.99-2.91-2.37-3.36-6.65-.99-9.56,2.37-2.91,6.65-3.36,9.56-.99Z"/>
        <path class="cls-1" d="M537.94,63.9c2.91,2.37,3.36,6.65,.99,9.56-2.37,2.91-6.65,3.36-9.56,.99s-3.36-6.65-.99-9.56c2.37-2.91,6.65-3.36,9.56-.99Z"/>
        <path class="cls-1" d="M474.52,78.47c2.91,2.37,3.36,6.65,.99,9.56s-6.65,3.36-9.56,.99-3.36-6.65-.99-9.56c2.37-2.91,6.65-3.36,9.56-.99Z"/>
        <path class="cls-1" d="M526.68,287.9c2.91,2.37,3.36,6.65,.99,9.56-2.37,2.91-6.65,3.36-9.56,.99-2.91-2.37-3.36-6.65-.99-9.56,2.37-2.91,6.65-3.36,9.56-.99Z"/>
        <path class="cls-1" d="M573.77,204.45c2.91,2.37,3.36,6.65,.99,9.56-2.37,2.91-6.65,3.36-9.56,.99-2.91-2.37-3.36-6.65-.99-9.56,2.37-2.91,6.65-3.36,9.56-.99Z"/>
        <path class="cls-1" d="M615.29,2.35c4.5,3.65,5.19,10.26,1.53,14.76-3.65,4.5-10.26,5.19-14.76,1.53-4.5-3.65-5.19-10.26-1.53-14.76,3.65-4.5,10.26-5.19,14.76-1.53Z"/>
        <path class="cls-1" d="M505.5,270.35c2.91,2.37,3.36,6.65,.99,9.56-2.37,2.91-6.65,3.36-9.56,.99-2.91-2.37-3.36-6.65-.99-9.56,2.37-2.91,6.65-3.36,9.56-.99Z"/>
        <path class="cls-1" d="M602.12,241.07c2.91,2.37,3.36,6.65,.99,9.56-2.37,2.91-6.65,3.36-9.56,.99s-3.36-6.65-.99-9.56c2.37-2.91,6.65-3.36,9.56-.99Z"/>
        <path class="cls-1" d="M243.93,285.04c2.91,2.37,3.36,6.65,.99,9.56-2.37,2.91-6.65,3.36-9.56,.99-2.91-2.37-3.36-6.65-.99-9.56,2.37-2.91,6.65-3.36,9.56-.99Z"/>
        <path class="cls-1" d="M304.28,203.06c3.69,2.99,4.25,8.4,1.26,12.09-2.99,3.69-8.4,4.25-12.09,1.26-3.69-2.99-4.25-8.4-1.26-12.09,2.99-3.69,8.4-4.25,12.09-1.26Z"/>
        <path class="cls-1" d="M234,311.63c2.32,1.89,2.68,5.3,.79,7.62-1.89,2.32-5.3,2.68-7.62,.79-2.32-1.89-2.68-5.3-.79-7.62,1.89-2.32,5.3-2.68,7.62-.79Z"/>
        <path class="cls-1" d="M200.08,287.44c3.69,2.99,4.25,8.4,1.26,12.09-2.99,3.69-8.4,4.25-12.09,1.26-3.69-2.99-4.25-8.4-1.26-12.09,2.99-3.69,8.4-4.25,12.09-1.26Z"/>
        <path class="cls-1" d="M972.28,757.12c3.58,2.9,4.12,8.16,1.22,11.74-2.9,3.58-8.16,4.12-11.74,1.22s-4.12-8.16-1.22-11.74,8.16-4.12,11.74-1.22Z"/>
        <path class="cls-1" d="M999.52,795.68c3.58,2.9,4.12,8.16,1.22,11.74-2.9,3.58-8.16,4.12-11.74,1.22-3.58-2.9-4.12-8.16-1.22-11.74s8.16-4.12,11.74-1.22Z"/>
        <path class="cls-1" d="M243.71,384.07c2.27,1.84,2.62,5.18,.77,7.45-1.84,2.27-5.18,2.62-7.45,.77-2.27-1.84-2.62-5.18-.77-7.45,1.84-2.27,5.18-2.62,7.45-.77Z"/>
        <path class="cls-1" d="M283.53,367.53c2.41,1.96,2.78,5.49,.82,7.9-1.96,2.41-5.49,2.78-7.9,.82-2.41-1.96-2.78-5.49-.82-7.9,1.96-2.41,5.49-2.78,7.9-.82Z"/>
        <circle class="cls-1" cx="313.23" cy="830.64" r="10.31" transform="translate(-28.58 11.35) rotate(-1.98)"/>
        <circle class="cls-1" cx="971.37" cy="469.59" r="9.59" transform="translate(476.2 1428.17) rotate(-88.48)"/>
        <path class="cls-1" d="M669.49,489.68c4.11,3.34,4.74,9.37,1.4,13.48-3.34,4.11-9.37,4.74-13.48,1.4-4.11-3.34-4.74-9.37-1.4-13.48,3.34-4.11,9.37-4.74,13.48-1.4Z"/>
        <path class="cls-1" d="M637.13,661.68c4.11,3.34,4.74,9.37,1.4,13.48-3.34,4.11-9.37,4.74-13.48,1.4-4.11-3.34-4.74-9.37-1.4-13.48,3.34-4.11,9.37-4.74,13.48-1.4Z"/>
        <path class="cls-1" d="M702.97,630.03c4.11,3.34,4.74,9.37,1.4,13.48-3.34,4.11-9.37,4.74-13.48,1.4-4.11-3.34-4.74-9.37-1.4-13.48,3.34-4.11,9.37-4.74,13.48-1.4Z"/>
        <path class="cls-1" d="M839.09,353.56c4.11,3.34,4.74,9.37,1.4,13.48-3.34,4.11-9.37,4.74-13.48,1.4-4.11-3.34-4.74-9.37-1.4-13.48,3.34-4.11,9.37-4.74,13.48-1.4Z"/>
        <path class="cls-1" d="M856.39,467.33c3.51,2.85,4.04,7.99,1.19,11.5-2.85,3.51-7.99,4.04-11.5,1.19-3.51-2.85-4.04-7.99-1.19-11.5,2.85-3.51,7.99-4.04,11.5-1.19Z"/>
        <path class="cls-1" d="M856.39,535.45c3.51,2.85,4.04,7.99,1.19,11.5-2.85,3.51-7.99,4.04-11.5,1.19-3.51-2.85-4.04-7.99-1.19-11.5,2.85-3.51,7.99-4.04,11.5-1.19Z"/>
        <path class="cls-1" d="M755.07,419.18c4.43,3.59,5.1,10.1,1.51,14.52-3.59,4.43-10.1,5.1-14.52,1.51-4.43-3.59-5.1-10.1-1.51-14.52,3.59-4.43,10.1-5.1,14.52-1.51Z"/>
        <path class="cls-1" d="M707.85,421.41c2.5,2.03,2.88,5.7,.85,8.2-2.03,2.5-5.7,2.88-8.2,.85-2.5-2.03-2.88-5.7-.85-8.2,2.03-2.5,5.7-2.88,8.2-.85Z"/>
        <path class="cls-1" d="M774.89,537.27c2.5,2.03,2.88,5.7,.85,8.2-2.03,2.5-5.7,2.88-8.2,.85-2.5-2.03-2.88-5.7-.85-8.2,2.03-2.5,5.7-2.88,8.2-.85Z"/>
        <path class="cls-1" d="M916.99,560.1c2.5,2.03,2.88,5.7,.85,8.2-2.03,2.5-5.7,2.88-8.2,.85-2.5-2.03-2.88-5.7-.85-8.2,2.03-2.5,5.7-2.88,8.2-.85Z"/>
        <path class="cls-1" d="M743.76,511.99c2.5,2.03,2.88,5.7,.85,8.2s-5.7,2.88-8.2,.85c-2.5-2.03-2.88-5.7-.85-8.2,2.03-2.5,5.7-2.88,8.2-.85Z"/>
        <circle class="cls-1" cx="762.8" cy="603.27" r="9.95" transform="translate(158.16 1364.99) rotate(-89.9)"/>
        <path class="cls-1" d="M705.48,541.98c4.27,3.46,4.92,9.73,1.45,14s-9.73,4.92-14,1.45c-4.27-3.46-4.92-9.73-1.45-14,3.46-4.27,9.73-4.92,14-1.45Z"/>
        <circle class="cls-1" cx="807.7" cy="589.54" r="9.95" transform="translate(216.72 1396.19) rotate(-89.9)"/>
        <path class="cls-1" d="M787.55,626.03c3.68,2.98,4.24,8.38,1.25,12.06-2.98,3.68-8.38,4.24-12.06,1.25-3.68-2.98-4.24-8.38-1.25-12.06,2.98-3.68,8.38-4.24,12.06-1.25Z"/>
        <path class="cls-1" d="M867.56,649.73c4.41,3.58,5.08,10.05,1.5,14.45s-10.05,5.08-14.45,1.5c-4.41-3.58-5.08-10.05-1.5-14.45,3.58-4.41,10.05-5.08,14.45-1.5Z"/>
        <path class="cls-1" d="M825.27,630.65c3.77,3.06,4.34,8.59,1.28,12.36-3.06,3.77-8.59,4.34-12.36,1.28-3.77-3.06-4.34-8.59-1.28-12.36s8.59-4.34,12.36-1.28Z"/>
        <path class="cls-1" d="M794.13,836.17c2.39,1.94,2.76,5.46,.82,7.85s-5.46,2.76-7.85,.82-2.76-5.46-.82-7.85,5.46-2.76,7.85-.82Z"/>
        <path class="cls-1" d="M798.69,955.07c2.39,1.94,2.76,5.46,.82,7.85-1.94,2.39-5.46,2.76-7.85,.82-2.39-1.94-2.76-5.46-.82-7.85,1.94-2.39,5.46-2.76,7.85-.82Z"/>
        <path class="cls-1" d="M491.69,878.22c2.86,2.32,3.29,6.52,.97,9.38-2.32,2.86-6.52,3.29-9.38,.97-2.86-2.32-3.29-6.52-.97-9.38,2.32-2.86,6.52-3.29,9.38-.97Z"/>
        <path class="cls-1" d="M790.37,764.71c3.92,3.18,4.52,8.95,1.34,12.87-3.18,3.92-8.95,4.52-12.87,1.34-3.92-3.18-4.52-8.95-1.34-12.87,3.18-3.92,8.95-4.52,12.87-1.34Z"/>
        <path class="cls-1" d="M611.64,721.14c3.28,2.67,3.79,7.49,1.12,10.78-2.67,3.28-7.49,3.79-10.78,1.12-3.28-2.67-3.79-7.49-1.12-10.78,2.67-3.28,7.49-3.79,10.78-1.12Z"/>
        <path class="cls-1" d="M691.16,666.22c3.28,2.67,3.79,7.49,1.12,10.78s-7.49,3.79-10.78,1.12c-3.28-2.67-3.79-7.49-1.12-10.78,2.67-3.28,7.49-3.79,10.78-1.12Z"/>
        <path class="cls-1" d="M588.34,764.76c3.03,2.46,3.5,6.92,1.03,9.95s-6.92,3.5-9.95,1.03c-3.03-2.46-3.5-6.92-1.03-9.95,2.46-3.03,6.92-3.5,9.95-1.03Z"/>
        <path class="cls-1" d="M799.76,883.11c3.12,2.53,3.59,7.11,1.06,10.22-2.53,3.12-7.11,3.59-10.22,1.06s-3.59-7.11-1.06-10.22,7.11-3.59,10.22-1.06Z"/>
        <path class="cls-1" d="M225.24,559.84c2.65,2.15,3.05,6.03,.9,8.68-2.15,2.65-6.03,3.05-8.68,.9s-3.05-6.03-.9-8.68c2.15-2.65,6.03-3.05,8.68-.9Z"/>
        <path class="cls-1" d="M754.75,164.87c4.21,3.42,4.86,9.61,1.44,13.82-3.42,4.21-9.61,4.86-13.82,1.44-4.21-3.42-4.86-9.61-1.44-13.82,3.42-4.21,9.61-4.86,13.82-1.44Z"/>
        <path class="cls-1" d="M724.44,291.31c2.65,2.16,3.06,6.05,.9,8.71-2.15,2.65-6.05,3.06-8.71,.9-2.65-2.15-3.06-6.05-.9-8.71,2.15-2.65,6.05-3.06,8.71-.91Z"/>
        <path class="cls-1" d="M698.12,222.07c2.88,2.34,3.32,6.56,.98,9.44-2.34,2.88-6.56,3.32-9.44,.98-2.88-2.34-3.32-6.56-.98-9.44s6.56-3.32,9.44-.98Z"/>
        <path class="cls-1" d="M564.06,289.49c2.03,1.65,2.34,4.64,.69,6.67-1.65,2.03-4.64,2.34-6.67,.69-2.03-1.65-2.34-4.64-.69-6.67,1.65-2.03,4.64-2.34,6.67-.69Z"/>
        <path class="cls-1" d="M685.47,260.05c2.88,2.34,3.32,6.56,.98,9.44s-6.56,3.32-9.44,.98-3.32-6.56-.98-9.44c2.34-2.88,6.56-3.32,9.44-.98Z"/>
        <path class="cls-1" d="M674.14,287.97c2.88,2.34,3.32,6.56,.98,9.44-2.34,2.88-6.56,3.32-9.44,.98s-3.32-6.56-.98-9.44,6.56-3.32,9.44-.98Z"/>
        <path class="cls-1" d="M767.57,221.68c3.1,2.51,3.57,7.06,1.06,10.15-2.51,3.1-7.06,3.57-10.15,1.06-3.1-2.51-3.57-7.06-1.06-10.15,2.51-3.1,7.06-3.57,10.15-1.06Z"/>
        <path class="cls-1" d="M958.91,485.66c3.26,2.65,3.76,7.44,1.11,10.7-2.65,3.26-7.44,3.76-10.7,1.11s-3.76-7.44-1.11-10.7c2.65-3.26,7.44-3.76,10.7-1.11Z"/>
        <path class="cls-1" d="M747.2,255.54c2.49,2.02,2.87,5.68,.85,8.17-2.02,2.49-5.68,2.87-8.17,.85-2.49-2.02-2.87-5.68-.85-8.17s5.68-2.87,8.17-.85Z"/>
        <circle class="cls-1" cx="818.14" cy="416.01" r="9.85" transform="translate(-38.61 86.78) rotate(-5.93)"/>
        <path class="cls-1" d="M972.82,576.14c4.22,3.43,4.87,9.63,1.44,13.86-3.43,4.22-9.63,4.87-13.86,1.44-4.22-3.43-4.87-9.63-1.44-13.86,3.43-4.22,9.63-4.87,13.86-1.44Z"/>
        <path class="cls-1" d="M740.61,461.46c3.05,2.48,3.51,6.95,1.04,10-2.48,3.05-6.95,3.51-10,1.04-3.05-2.48-3.51-6.95-1.04-10,2.48-3.05,6.95-3.51,10-1.04Z"/>
        <path class="cls-1" d="M697.33,481.2c3.05,2.48,3.51,6.95,1.04,10-2.48,3.05-6.95,3.51-10,1.04-3.05-2.48-3.51-6.95-1.04-10,2.48-3.05,6.95-3.51,10-1.04Z"/>
        <path class="cls-1" d="M775.74,386.79c2.54,2.06,2.92,5.79,.86,8.32-2.06,2.54-5.79,2.92-8.32,.86-2.54-2.06-2.92-5.79-.86-8.32,2.06-2.54,5.79-2.92,8.32-.86Z"/>
        <path class="cls-1" d="M985.94,529.14c2.54,2.06,2.92,5.79,.86,8.32-2.06,2.54-5.79,2.92-8.32,.86-2.54-2.06-2.92-5.79-.86-8.32,2.06-2.54,5.79-2.92,8.32-.86Z"/>
        <path class="cls-1" d="M821.06,130.4c3.16,2.56,3.64,7.2,1.08,10.36-2.56,3.16-7.2,3.64-10.36,1.08-3.16-2.56-3.64-7.2-1.08-10.36,2.56-3.16,7.2-3.64,10.36-1.08Z"/>
        <path class="cls-1" d="M661.04,122.44c2.82,2.29,3.25,6.42,.96,9.24-2.29,2.82-6.42,3.25-9.24,.96-2.82-2.29-3.25-6.42-.96-9.24s6.42-3.25,9.24-.96Z"/>
        <path class="cls-1" d="M709.18,383.54c3.4,2.76,3.92,7.76,1.16,11.16-2.76,3.4-7.76,3.92-11.16,1.16-3.4-2.76-3.92-7.76-1.16-11.16,2.76-3.4,7.76-3.92,11.16-1.16Z"/>
        <path class="cls-1" d="M339.78,101.71c2.8,2.27,3.22,6.38,.95,9.18-2.27,2.8-6.38,3.22-9.18,.95s-3.22-6.38-.95-9.18c2.27-2.8,6.38-3.22,9.18-.95Z"/>
        <path class="cls-1" d="M286.07,111.75c2.8,2.27,3.22,6.38,.95,9.18-2.27,2.8-6.38,3.22-9.18,.95-2.8-2.27-3.22-6.38-.95-9.18,2.27-2.8,6.38-3.22,9.18-.95Z"/>
        <path class="cls-1" d="M434.77,127.3c2.8,2.27,3.22,6.38,.95,9.18-2.27,2.8-6.38,3.22-9.18,.95s-3.22-6.38-.95-9.18c2.27-2.8,6.38-3.22,9.18-.95Z"/>
        <path class="cls-1" d="M468.36,22.91c2.8,2.27,3.22,6.38,.95,9.18-2.27,2.8-6.38,3.22-9.18,.95s-3.22-6.38-.95-9.18c2.27-2.8,6.38-3.22,9.18-.95Z"/>
        <path class="cls-1" d="M515.05,105.96c2.8,2.27,3.22,6.38,.95,9.18-2.27,2.8-6.38,3.22-9.18,.95-2.8-2.27-3.22-6.38-.95-9.18s6.38-3.22,9.18-.95Z"/>
        <path class="cls-1" d="M578.22,49.46c2.8,2.27,3.22,6.38,.95,9.18-2.27,2.8-6.38,3.22-9.18,.95-2.8-2.27-3.22-6.38-.95-9.18,2.27-2.8,6.38-3.22,9.18-.95Z"/>
        <path class="cls-1" d="M515.05,16.39c2.8,2.27,3.22,6.38,.95,9.18-2.27,2.8-6.38,3.22-9.18,.95-2.8-2.27-3.22-6.38-.95-9.18s6.38-3.22,9.18-.95Z"/>
        <path class="cls-1" d="M668.53,5.43c2.8,2.27,3.22,6.38,.95,9.18-2.27,2.8-6.38,3.22-9.18,.95-2.8-2.27-3.22-6.38-.95-9.18,2.27-2.8,6.38-3.22,9.18-.95Z"/>
        <path class="cls-1" d="M570.5,10.84c2.8,2.27,3.22,6.38,.95,9.18s-6.38,3.22-9.18,.95-3.22-6.38-.95-9.18c2.27-2.8,6.38-3.22,9.18-.95Z"/>
        <path class="cls-1" d="M314.86,49.46c2.8,2.27,3.22,6.38,.95,9.18-2.27,2.8-6.38,3.22-9.18,.95-2.8-2.27-3.22-6.38-.95-9.18s6.38-3.22,9.18-.95Z"/>
        <path class="cls-1" d="M349.02,143.38c2.39,1.94,2.75,5.45,.81,7.84-1.94,2.39-5.45,2.75-7.84,.81s-2.75-5.45-.81-7.84c1.94-2.39,5.45-2.75,7.84-.81Z"/>
        <path class="cls-1" d="M259.56,50.2c2.39,1.94,2.75,5.45,.81,7.84-1.94,2.39-5.45,2.75-7.84,.81s-2.75-5.45-.81-7.84c1.94-2.39,5.45-2.75,7.84-.81Z"/>
        <path class="cls-1" d="M250.48,122.71c2.39,1.94,2.75,5.45,.81,7.84-1.94,2.39-5.45,2.75-7.84,.81-2.39-1.94-2.75-5.45-.81-7.84,1.94-2.39,5.45-2.75,7.84-.81Z"/>
        <path class="cls-1" d="M218.86,64.85c2.39,1.94,2.75,5.45,.81,7.84s-5.45,2.75-7.84,.81c-2.39-1.94-2.75-5.45-.81-7.84,1.94-2.39,5.45-2.75,7.84-.81Z"/>
        <path class="cls-1" d="M574.55,342.8c3.45,2.8,3.97,7.86,1.17,11.3s-7.86,3.97-11.3,1.17-3.97-7.86-1.17-11.3c2.8-3.45,7.86-3.97,11.3-1.17Z"/>
        <path class="cls-1" d="M318.3,354.76c3.45,2.8,3.97,7.86,1.17,11.3-2.8,3.45-7.86,3.97-11.3,1.17s-3.97-7.86-1.17-11.3c2.8-3.45,7.86-3.97,11.3-1.17Z"/>
        <path class="cls-1" d="M1008.56,735.88c3.12,2.53,3.59,7.11,1.06,10.23-2.53,3.12-7.11,3.59-10.23,1.06-3.12-2.53-3.59-7.11-1.06-10.23s7.11-3.59,10.23-1.06Z"/>
        <path class="cls-1" d="M444.02,717.32c2.47,2,2.85,5.63,.84,8.1-2,2.47-5.63,2.85-8.1,.84-2.47-2-2.85-5.63-.84-8.1,2-2.47,5.63-2.85,8.1-.84Z"/>
        <path class="cls-1" d="M444.96,802.69c3.1,2.52,3.58,7.07,1.06,10.18-2.52,3.1-7.07,3.58-10.18,1.06s-3.58-7.07-1.06-10.18c2.52-3.1,7.07-3.58,10.18-1.06Z"/>
        <path class="cls-1" d="M493.75,758.28c2.58,2.09,2.97,5.88,.88,8.46-2.09,2.58-5.88,2.97-8.46,.88s-2.97-5.88-.88-8.46,5.88-2.97,8.46-.88Z"/>
        <path class="cls-1" d="M438.29,743.45c2.82,2.29,3.25,6.43,.96,9.25s-6.43,3.25-9.25,.96c-2.82-2.29-3.25-6.43-.96-9.25,2.29-2.82,6.43-3.25,9.25-.96Z"/>
        <path class="cls-1" d="M597.57,794.18c2.83,2.3,3.26,6.45,.96,9.28-2.3,2.83-6.45,3.26-9.28,.96-2.83-2.3-3.26-6.45-.96-9.28,2.3-2.83,6.45-3.26,9.28-.96Z"/>
        <path class="cls-1" d="M649.94,813.63c2.86,2.32,3.3,6.52,.98,9.38s-6.52,3.3-9.38,.98c-2.86-2.32-3.3-6.52-.98-9.38,2.32-2.86,6.52-3.3,9.38-.98Z"/>
        <path class="cls-1" d="M704.95,921.32c2.86,2.32,3.3,6.52,.98,9.38-2.32,2.86-6.52,3.3-9.38,.98s-3.3-6.52-.98-9.38c2.32-2.86,6.52-3.3,9.38-.98Z"/>
        <path class="cls-1" d="M669.52,864.97c2.72,2.21,3.14,6.21,.93,8.94-2.21,2.72-6.21,3.14-8.94,.93-2.72-2.21-3.14-6.21-.93-8.94,2.21-2.72,6.21-3.14,8.94-.93Z"/>
        <path class="cls-1" d="M925.1,700.79c2.72,2.21,3.14,6.21,.93,8.94s-6.21,3.14-8.94,.93c-2.72-2.21-3.14-6.21-.93-8.94,2.21-2.72,6.21-3.14,8.94-.93Z"/>
        <path class="cls-1" d="M711.14,885.36c2.72,2.21,3.14,6.21,.93,8.94-2.21,2.72-6.21,3.14-8.94,.93-2.72-2.21-3.14-6.21-.93-8.94,2.21-2.72,6.21-3.14,8.94-.93Z"/>
        <path class="cls-1" d="M700.25,962.37c3.67,2.98,4.24,8.38,1.25,12.05-2.98,3.67-8.38,4.24-12.05,1.25-3.67-2.98-4.24-8.38-1.25-12.05,2.98-3.67,8.38-4.24,12.05-1.25Z"/>
        <path class="cls-1" d="M837.78,834.68c3.21,2.61,3.7,7.33,1.1,10.54-2.61,3.21-7.33,3.7-10.54,1.1-3.21-2.61-3.7-7.33-1.1-10.54s7.33-3.7,10.54-1.1Z"/>
        <path class="cls-1" d="M730.52,677.65c2.32,1.88,2.67,5.28,.79,7.6-1.88,2.32-5.28,2.67-7.6,.79-2.32-1.88-2.67-5.28-.79-7.6,1.88-2.32,5.28-2.67,7.6-.79Z"/>
        <path class="cls-1" d="M881.23,696.82c3.75,3.04,4.32,8.55,1.28,12.3-3.04,3.75-8.55,4.32-12.3,1.28-3.75-3.04-4.32-8.55-1.28-12.3,3.04-3.75,8.55-4.32,12.3-1.28Z"/>
        <path class="cls-1" d="M321.64,877.25c4.13,3.36,4.77,9.43,1.41,13.56-3.36,4.13-9.43,4.77-13.56,1.41-4.13-3.36-4.77-9.43-1.41-13.56,3.36-4.13,9.43-4.77,13.56-1.41Z"/>
        <path class="cls-1" d="M62.89,641.26c2.56,2.08,2.95,5.84,.87,8.4-2.08,2.56-5.84,2.95-8.4,.87-2.56-2.08-2.95-5.84-.87-8.4,2.08-2.56,5.84-2.95,8.4-.87Z"/>
        <path class="cls-1" d="M12.98,676.27c2.56,2.08,2.95,5.84,.87,8.4-2.08,2.56-5.84,2.95-8.4,.87-2.56-2.08-2.95-5.84-.87-8.4,2.08-2.56,5.84-2.95,8.4-.87Z"/>
        <path class="cls-1" d="M180.59,804.98c4.39,3.56,5.06,10.01,1.5,14.4-3.56,4.39-10.01,5.06-14.4,1.5-4.39-3.56-5.06-10.01-1.5-14.4,3.56-4.39,10.01-5.06,14.4-1.5Z"/>
        <path class="cls-1" d="M238.25,727.44c4.01,3.25,4.62,9.14,1.37,13.15-3.25,4.01-9.14,4.62-13.15,1.37s-4.62-9.14-1.37-13.15c3.25-4.01,9.14-4.62,13.15-1.37Z"/>
        <path class="cls-1" d="M200.3,747.84c2.67,2.17,3.08,6.09,.91,8.76s-6.09,3.08-8.76,.91c-2.67-2.17-3.08-6.09-.91-8.76,2.17-2.67,6.09-3.08,8.76-.91Z"/>
        <path class="cls-1" d="M163.54,740.45c4.53,3.68,5.22,10.34,1.54,14.87-3.68,4.53-10.34,5.22-14.87,1.55-4.53-3.68-5.22-10.34-1.54-14.87,3.68-4.53,10.34-5.22,14.87-1.55Z"/>
        <path class="cls-1" d="M311.41,709.7c2.72,2.21,3.13,6.2,.93,8.91-2.21,2.72-6.2,3.13-8.91,.93-2.72-2.21-3.13-6.2-.93-8.91,2.21-2.72,6.2-3.13,8.91-.93Z"/>
        <circle class="cls-1" cx="437.33" cy="644.64" r="9.14" transform="translate(-64.28 48.65) rotate(-5.93)"/>
        <path class="cls-1" d="M425.8,659.94c3.54,2.87,4.08,8.07,1.21,11.61-2.87,3.54-8.07,4.08-11.61,1.21-3.54-2.87-4.08-8.07-1.21-11.61,2.87-3.54,8.07-4.08,11.61-1.21Z"/>
        <path class="cls-1" d="M374.36,634.49c2.77,2.25,3.19,6.32,.94,9.09s-6.32,3.19-9.09,.94c-2.77-2.25-3.19-6.32-.94-9.09s6.32-3.19,9.09-.94Z"/>
        <circle class="cls-1" cx="285.95" cy="567.26" r="7.37" transform="translate(-58.3 33.37) rotate(-6.06)"/>
        <path class="cls-1" d="M164.93,640.88c2.77,2.25,3.19,6.32,.94,9.09-2.25,2.77-6.32,3.19-9.09,.94-2.77-2.25-3.19-6.32-.94-9.09s6.32-3.19,9.09-.94Z"/>
        <path class="cls-1" d="M248.45,659.11c2.82,2.29,3.25,6.44,.96,9.26-2.29,2.82-6.44,3.25-9.26,.96-2.82-2.29-3.25-6.44-.96-9.26,2.29-2.82,6.44-3.25,9.26-.96Z"/>
        <path class="cls-1" d="M286.78,661c1.78,1.44,2.05,4.06,.61,5.84-1.44,1.78-4.06,2.05-5.84,.61-1.78-1.44-2.05-4.06-.61-5.84,1.44-1.78,4.06-2.05,5.84-.61Z"/>
        <circle class="cls-1" cx="104.28" cy="653.01" r="9.54" transform="translate(-483.3 349.61) rotate(-53.62)"/>
        <path class="cls-1" d="M254.38,624.73c4.4,3.57,5.07,10.02,1.5,14.42-3.57,4.4-10.02,5.07-14.42,1.5-4.4-3.57-5.07-10.02-1.5-14.42,3.57-4.4,10.02-5.07,14.42-1.5Z"/>
        <path class="cls-1" d="M281.08,524.53c2.67,2.16,3.07,6.08,.91,8.75-2.16,2.67-6.08,3.07-8.75,.91s-3.07-6.08-.91-8.75c2.16-2.67,6.08-3.07,8.75-.91Z"/>
        <path class="cls-1" d="M147.36,565.81c2.67,2.16,3.07,6.08,.91,8.75-2.16,2.67-6.08,3.07-8.75,.91-2.67-2.16-3.07-6.08-.91-8.75,2.16-2.67,6.08-3.07,8.75-.91Z"/>
        <path class="cls-1" d="M221.46,610.02c2.96,2.41,3.42,6.76,1.01,9.72-2.41,2.96-6.76,3.42-9.72,1.01-2.96-2.41-3.42-6.76-1.01-9.72,2.41-2.96,6.76-3.42,9.72-1.01Z"/>
        <path class="cls-1" d="M283.43,459.97c2.34,1.9,2.7,5.33,.8,7.67-1.9,2.34-5.33,2.7-7.67,.8-2.34-1.9-2.7-5.33-.8-7.67,1.9-2.34,5.33-2.7,7.67-.8Z"/>
        <path class="cls-1" d="M246.64,456.49c2.62,2.13,3.02,5.98,.89,8.61-2.13,2.62-5.98,3.02-8.61,.89-2.62-2.13-3.02-5.98-.89-8.61,2.13-2.62,5.98-3.02,8.61-.89Z"/>
        <circle class="cls-1" cx="100.72" cy="502.62" r="9.27" transform="translate(-112.37 36.4) rotate(-13.23)"/>
        <path class="cls-1" d="M207.78,418.29c3.7,3.01,4.27,8.45,1.26,12.15-3.01,3.7-8.45,4.27-12.15,1.26-3.7-3.01-4.27-8.45-1.26-12.15,3.01-3.7,8.45-4.27,12.15-1.26Z"/>
        <path class="cls-1" d="M343.12,257.55c4.25,3.45,4.9,9.7,1.45,13.96-3.45,4.25-9.7,4.9-13.96,1.45-4.25-3.45-4.9-9.7-1.45-13.96,3.45-4.25,9.7-4.9,13.96-1.45Z"/>
        <path class="cls-1" d="M243.57,484.16c2.67,2.17,3.08,6.09,.91,8.75-2.17,2.67-6.09,3.08-8.75,.91s-3.08-6.09-.91-8.75,6.09-3.08,8.75-.91Z"/>
        <path class="cls-1" d="M142.75,425.28c2.87,2.33,3.31,6.55,.98,9.42-2.33,2.87-6.55,3.31-9.42,.98-2.87-2.33-3.31-6.55-.98-9.42,2.33-2.87,6.55-3.31,9.42-.98Z"/>
        <path class="cls-1" d="M35.2,497.42c2.87,2.33,3.31,6.55,.98,9.42-2.33,2.87-6.55,3.31-9.42,.98-2.87-2.33-3.31-6.55-.98-9.42,2.33-2.87,6.55-3.31,9.42-.98Z"/>
        <path class="cls-1" d="M77.35,428.6c2.87,2.33,3.31,6.55,.98,9.42-2.33,2.87-6.55,3.31-9.42,.98-2.87-2.33-3.31-6.55-.98-9.42s6.55-3.31,9.42-.98Z"/>
        <path class="cls-1" d="M178.36,382.22c2.87,2.33,3.31,6.55,.98,9.42-2.33,2.87-6.55,3.31-9.42,.98-2.87-2.33-3.31-6.55-.98-9.42s6.55-3.31,9.42-.98Z"/>
        <path class="cls-1" d="M251.64,868.04c3.18,2.58,3.67,7.26,1.08,10.44s-7.26,3.67-10.44,1.08c-3.18-2.58-3.67-7.26-1.08-10.44s7.26-3.67,10.44-1.08Z"/>
        <path class="cls-1" d="M361.61,775.83c3.98,3.23,4.59,9.08,1.36,13.06-3.23,3.98-9.08,4.59-13.06,1.36-3.98-3.23-4.59-9.08-1.36-13.06,3.23-3.98,9.08-4.59,13.06-1.36Z"/>
        <path class="cls-1" d="M436.08,290.15c3.29,2.67,3.8,7.51,1.12,10.8-2.67,3.29-7.51,3.8-10.8,1.12-3.29-2.67-3.8-7.51-1.12-10.8,2.67-3.29,7.51-3.8,10.8-1.12Z"/>
        <path class="cls-1" d="M480.48,134.71c3.29,2.67,3.8,7.51,1.12,10.8-2.67,3.29-7.51,3.8-10.8,1.12s-3.8-7.51-1.12-10.8c2.67-3.29,7.51-3.8,10.8-1.12Z"/>
        <path class="cls-1" d="M376.74,387.94c3.01,2.44,3.47,6.87,1.03,9.88-2.44,3.01-6.87,3.47-9.88,1.03-3.01-2.44-3.47-6.87-1.03-9.88,2.44-3.01,6.87-3.47,9.88-1.03Z"/>
        <path class="cls-1" d="M344.65,370.43c3.01,2.44,3.47,6.87,1.03,9.88-2.44,3.01-6.87,3.47-9.88,1.03-3.01-2.44-3.47-6.87-1.03-9.88,2.44-3.01,6.87-3.47,9.88-1.03Z"/>
        <path class="cls-1" d="M86.97,596.09c3.08,2.5,3.55,7.02,1.05,10.09-2.5,3.08-7.02,3.55-10.09,1.05-3.08-2.5-3.55-7.02-1.05-10.09,2.5-3.08,7.02-3.55,10.09-1.05Z"/>
        <path class="cls-1" d="M187.04,455.8c1.94,1.57,2.23,4.42,.66,6.36-1.57,1.94-4.42,2.23-6.36,.66-1.94-1.57-2.23-4.42-.66-6.36,1.57-1.94,4.42-2.23,6.36-.66Z"/>
        <path class="cls-1" d="M78.58,536.85c1.87,1.52,2.15,4.26,.64,6.13-1.52,1.87-4.26,2.15-6.13,.64s-2.15-4.26-.64-6.13c1.52-1.87,4.26-2.15,6.13-.64Z"/>
        <circle class="cls-1" cx="215.35" cy="260.05" r="8.81" transform="translate(-26.13 24.07) rotate(-6.03)"/>
        <path class="cls-1" d="M415.68,241.6c2.62,2.13,3.02,5.97,.89,8.6-2.13,2.62-5.97,3.02-8.59,.89-2.62-2.13-3.02-5.97-.89-8.59,2.13-2.62,5.97-3.02,8.59-.89Z"/>
        <path class="cls-1" d="M400.58,283.17c3.95,3.2,4.55,9,1.35,12.95-3.2,3.95-9,4.55-12.95,1.35-3.95-3.2-4.55-9-1.35-12.95,3.2-3.95,9-4.55,12.95-1.35Z"/>
        <path class="cls-1" d="M461.48,246.04c3.95,3.2,4.55,9,1.35,12.95-3.2,3.95-9,4.55-12.95,1.35-3.95-3.2-4.55-9-1.35-12.95,3.2-3.95,9-4.55,12.95-1.35Z"/>
        <path class="cls-1" d="M547.67,246.04c3.95,3.2,4.55,9,1.35,12.95-3.2,3.95-9,4.55-12.95,1.35-3.95-3.2-4.55-9-1.35-12.95,3.2-3.95,9-4.55,12.95-1.35Z"/>
        <path class="cls-1" d="M526.74,202.59c3.95,3.2,4.55,9,1.35,12.95-3.2,3.95-9,4.55-12.95,1.35s-4.55-9-1.35-12.95c3.2-3.95,9-4.55,12.95-1.35Z"/>
        <path class="cls-1" d="M417.4,189.7c2.99,2.43,3.45,6.82,1.02,9.81-2.43,2.99-6.82,3.45-9.81,1.02-2.99-2.43-3.45-6.82-1.02-9.81,2.43-2.99,6.82-3.45,9.81-1.02Z"/>
        <path class="cls-1" d="M435.64,216.21c2.99,2.43,3.45,6.82,1.02,9.81-2.43,2.99-6.82,3.45-9.81,1.02-2.99-2.43-3.45-6.82-1.02-9.81,2.43-2.99,6.82-3.45,9.81-1.02Z"/>
        <path class="cls-1" d="M193.47,233.69c2.57,2.09,2.96,5.86,.88,8.43-2.09,2.57-5.86,2.96-8.43,.88-2.57-2.09-2.96-5.86-.88-8.43,2.09-2.57,5.86-2.96,8.43-.88Z"/>
        <path class="cls-1" d="M417.76,75.03c4.03,3.27,4.65,9.2,1.38,13.23-3.27,4.03-9.2,4.65-13.23,1.38-4.03-3.27-4.65-9.2-1.38-13.23,3.27-4.03,9.2-4.65,13.23-1.38Z"/>
        <path class="cls-1" d="M291.4,289.4c3.71,3.01,4.27,8.45,1.26,12.16-3.01,3.71-8.45,4.27-12.16,1.26-3.71-3.01-4.27-8.45-1.26-12.16s8.45-4.27,12.16-1.26Z"/>
        <path class="cls-1" d="M273.11,85.44c4.06,3.3,4.68,9.26,1.38,13.33s-9.26,4.68-13.33,1.38c-4.06-3.3-4.68-9.26-1.38-13.33,3.3-4.06,9.26-4.68,13.33-1.38Z"/>
        <path class="cls-1" d="M286.23,142.45c2.91,2.36,3.35,6.63,.99,9.54-2.36,2.91-6.63,3.35-9.54,.99-2.91-2.36-3.35-6.63-.99-9.54,2.36-2.91,6.63-3.35,9.54-.99Z"/>
        <path class="cls-1" d="M254.75,210.04c2.91,2.36,3.35,6.63,.99,9.54-2.36,2.91-6.63,3.35-9.54,.99s-3.35-6.63-.99-9.54c2.36-2.91,6.63-3.35,9.54-.99Z"/>
        <path class="cls-1" d="M740.46,551.65c2.95,2.39,3.4,6.72,1,9.66s-6.72,3.4-9.66,1c-2.95-2.39-3.4-6.72-1-9.66s6.72-3.4,9.66-1Z"/>
        <path class="cls-1" d="M779.63,677.19c4.33,3.51,4.99,9.87,1.48,14.2-3.51,4.33-9.87,4.99-14.2,1.48-4.33-3.51-4.99-9.87-1.48-14.2,3.51-4.33,9.87-4.99,14.2-1.48Z"/>
        <path class="cls-1" d="M885.58,598.8c2.47,2.01,2.85,5.64,.84,8.11s-5.64,2.85-8.11,.84c-2.47-2.01-2.85-5.64-.84-8.11s5.64-2.85,8.11-.84Z"/>
        <path class="cls-1" d="M936.76,535.75c2.47,2.01,2.85,5.64,.84,8.11-2.01,2.47-5.64,2.85-8.11,.84-2.47-2.01-2.85-5.64-.84-8.11,2.01-2.47,5.64-2.85,8.11-.84Z"/>
        <path class="cls-1" d="M788.81,464.4c2.86,2.32,3.3,6.53,.98,9.39-2.32,2.86-6.53,3.3-9.39,.98-2.86-2.32-3.3-6.53-.98-9.39,2.32-2.86,6.53-3.3,9.39-.98Z"/>
        <path class="cls-1" d="M950.84,643.11c2.86,2.32,3.3,6.53,.98,9.39-2.32,2.86-6.53,3.3-9.39,.98s-3.3-6.53-.98-9.39c2.32-2.86,6.53-3.3,9.39-.98Z"/>
        <circle class="cls-1" cx="736.13" cy="713.14" r="10.34" transform="translate(-287.77 758.8) rotate(-46.64)"/>
        <path class="cls-1" d="M908.06,637.46c3.96,3.22,4.57,9.04,1.35,13-3.22,3.96-9.04,4.57-13,1.35-3.96-3.22-4.57-9.04-1.35-13,3.22-3.96,9.04-4.57,13-1.35Z"/>
        <path class="cls-1" d="M746.76,630.72c2.93,2.38,3.38,6.68,1,9.61-2.38,2.93-6.68,3.38-9.61,1-2.93-2.38-3.38-6.68-1-9.61,2.38-2.93,6.68-3.38,9.61-1Z"/>
        <path class="cls-1" d="M841.27,676.57c2.91,2.36,3.35,6.64,.99,9.54s-6.64,3.35-9.54,.99-3.35-6.64-.99-9.54c2.36-2.91,6.64-3.35,9.54-.99Z"/>
        <path class="cls-1" d="M805.61,716.27c3.05,2.48,3.52,6.96,1.04,10.01-2.48,3.05-6.96,3.52-10.01,1.04-3.05-2.48-3.52-6.96-1.04-10.01,2.48-3.05,6.96-3.52,10.01-1.04Z"/>
        <path class="cls-1" d="M754.92,844.09c4.32,3.51,4.98,9.86,1.47,14.18-3.51,4.32-9.86,4.98-14.18,1.47-4.32-3.51-4.98-9.86-1.47-14.19,3.51-4.32,9.86-4.98,14.18-1.47Z"/>
        <path class="cls-1" d="M826.09,910.33c4.32,3.51,4.98,9.86,1.47,14.18-3.51,4.32-9.86,4.98-14.18,1.47-4.32-3.51-4.98-9.86-1.47-14.18,3.51-4.32,9.86-4.98,14.18-1.47Z"/>
        <path class="cls-1" d="M856.86,787.7c3.16,2.57,3.64,7.21,1.08,10.37-2.57,3.16-7.21,3.64-10.37,1.08-3.16-2.57-3.64-7.21-1.08-10.37s7.21-3.64,10.37-1.08Z"/>
        <path class="cls-1" d="M236.72,918.6c4.36,3.54,5.03,9.95,1.49,14.31s-9.95,5.03-14.31,1.49c-4.36-3.54-5.03-9.95-1.49-14.31,3.54-4.36,9.95-5.03,14.31-1.49Z"/>
        <path class="cls-1" d="M496.24,639.82c3.36,2.72,3.87,7.65,1.14,11.01-2.72,3.36-7.65,3.87-11.01,1.14-3.36-2.72-3.87-7.65-1.14-11.01s7.65-3.87,11.01-1.14Z"/>
        <circle class="cls-1" cx="491.31" cy="830.64" r="10.45" transform="translate(-454.38 1023.06) rotate(-70.9)"/>
        <path class="cls-1" d="M692.08,760.62c3.91,3.18,4.51,8.92,1.33,12.84-3.18,3.91-8.92,4.51-12.84,1.33-3.91-3.18-4.51-8.92-1.33-12.84,3.18-3.91,8.92-4.51,12.84-1.33Z"/>
        <path class="cls-1" d="M661.63,904.38c3.21,2.61,3.7,7.33,1.1,10.54-2.61,3.21-7.33,3.7-10.54,1.1-3.21-2.61-3.7-7.33-1.1-10.54,2.61-3.21,7.33-3.7,10.54-1.1Z"/>
        <path class="cls-1" d="M674.15,716.42c3.59,2.91,4.13,8.18,1.22,11.76-2.91,3.59-8.18,4.13-11.76,1.22-3.59-2.91-4.13-8.18-1.22-11.76,2.91-3.59,8.18-4.13,11.76-1.22Z"/>
        <path class="cls-1" d="M349.78,327.08c2.91,2.36,3.35,6.63,.99,9.54-2.36,2.91-6.63,3.35-9.54,.99-2.91-2.36-3.35-6.63-.99-9.54,2.36-2.91,6.63-3.35,9.54-.99Z"/>
        <path class="cls-1" d="M900.63,350.88c4,3.25,4.61,9.12,1.36,13.13-3.25,4-9.12,4.61-13.13,1.36s-4.61-9.12-1.36-13.13c3.25-4,9.12-4.61,13.13-1.36Z"/>
        <path class="cls-1" d="M938.6,407.52c4.01,3.25,4.62,9.14,1.37,13.14-3.25,4.01-9.14,4.62-13.14,1.37-4.01-3.25-4.62-9.14-1.37-13.14s9.14-4.62,13.14-1.37Z"/>
        <path class="cls-1" d="M12.41,376.45c3.26,2.65,3.76,7.44,1.11,10.71-2.65,3.26-7.44,3.76-10.71,1.11-3.26-2.65-3.76-7.44-1.11-10.71,2.65-3.26,7.44-3.76,10.71-1.11Z"/>
        <path class="cls-1" d="M518.66,327.84c2.49,2.02,2.87,5.67,.85,8.16-2.02,2.49-5.67,2.87-8.16,.85s-2.87-5.67-.85-8.16,5.67-2.87,8.16-.85Z"/>
        <path class="cls-1" d="M37.8,698.53c2.49,2.02,2.87,5.67,.85,8.16-2.02,2.49-5.67,2.87-8.16,.85-2.49-2.02-2.87-5.67-.85-8.16,2.02-2.49,5.67-2.87,8.16-.85Z"/>
        <path class="cls-1" d="M773.05,343.15c3.76,3.05,4.33,8.57,1.28,12.32-3.05,3.76-8.57,4.33-12.32,1.28-3.76-3.05-4.33-8.57-1.28-12.32,3.05-3.76,8.57-4.33,12.32-1.28Z"/>
        <path class="cls-1" d="M668.96,604.57c3.76,3.05,4.33,8.57,1.28,12.32-3.05,3.76-8.57,4.33-12.32,1.28s-4.33-8.57-1.28-12.32c3.05-3.76,8.57-4.33,12.32-1.28Z"/>
        <path class="cls-1" d="M661.52,186.35c3.14,2.55,3.62,7.16,1.07,10.3-2.55,3.14-7.16,3.62-10.3,1.07-3.14-2.55-3.62-7.16-1.07-10.3,2.55-3.14,7.16-3.62,10.3-1.07Z"/>
        <path class="cls-1" d="M627.12,288.42c3.14,2.55,3.62,7.16,1.07,10.3-2.55,3.14-7.16,3.62-10.3,1.07-3.14-2.55-3.62-7.16-1.07-10.3,2.55-3.14,7.16-3.62,10.3-1.07Z"/>
        <path class="cls-1" d="M469.74,287.49c3.14,2.55,3.62,7.16,1.07,10.3-2.55,3.14-7.16,3.62-10.3,1.07-3.14-2.55-3.62-7.16-1.07-10.3,2.55-3.14,7.16-3.62,10.3-1.07Z"/>
        <path class="cls-1" d="M728.48,131.12c2.76,2.24,3.18,6.3,.94,9.06-2.24,2.76-6.3,3.18-9.06,.94-2.76-2.24-3.18-6.3-.94-9.06s6.3-3.18,9.06-.94Z"/>
        <path class="cls-1" d="M711.19,66.56c2.76,2.24,3.18,6.3,.94,9.06-2.24,2.76-6.3,3.18-9.06,.94-2.76-2.24-3.18-6.3-.94-9.06s6.3-3.18,9.06-.94Z"/>
        <path class="cls-1" d="M708.24,29.5c2.76,2.24,3.18,6.3,.94,9.06s-6.3,3.18-9.06,.94-3.18-6.3-.94-9.06,6.3-3.18,9.06-.94Z"/>
        <path class="cls-1" d="M700.99,115.11c2.76,2.24,3.18,6.3,.94,9.06s-6.3,3.18-9.06,.94c-2.76-2.24-3.18-6.3-.94-9.06,2.24-2.76,6.3-3.18,9.06-.94Z"/>
        <path class="cls-1" d="M761.22,122.03c2.76,2.24,3.18,6.3,.94,9.06s-6.3,3.18-9.06,.94c-2.76-2.24-3.18-6.3-.94-9.06s6.3-3.18,9.06-.94Z"/>
        <path class="cls-1" d="M667.5,48.49c2.76,2.24,3.18,6.3,.94,9.06-2.24,2.76-6.3,3.18-9.06,.94-2.76-2.24-3.18-6.3-.94-9.06s6.3-3.18,9.06-.94Z"/>
        <path class="cls-1" d="M617.3,99.5c2.76,2.24,3.18,6.3,.94,9.06s-6.3,3.18-9.06,.94c-2.76-2.24-3.18-6.3-.94-9.06,2.24-2.76,6.3-3.18,9.06-.94Z"/>
        <path class="cls-1" d="M658.05,419.42c2.71,2.2,3.12,6.18,.92,8.89-2.2,2.71-6.18,3.12-8.89,.92-2.71-2.2-3.12-6.18-.92-8.89,2.2-2.71,6.18-3.12,8.89-.92Z"/>
        <path class="cls-1" d="M816.47,317.42c2.71,2.2,3.12,6.18,.92,8.89-2.2,2.71-6.18,3.12-8.89,.92-2.71-2.2-3.12-6.18-.92-8.89s6.18-3.12,8.89-.92Z"/>
        <path class="cls-1" d="M842.31,87.89c2.71,2.2,3.12,6.18,.92,8.89s-6.18,3.12-8.89,.92c-2.71-2.2-3.12-6.18-.92-8.89,2.2-2.71,6.18-3.12,8.89-.92Z"/>
        <path class="cls-1" d="M736.7,74.1c2.71,2.2,3.12,6.18,.92,8.89-2.2,2.71-6.18,3.12-8.89,.92-2.71-2.2-3.12-6.18-.92-8.89s6.18-3.12,8.89-.92Z"/>
        <path class="cls-1" d="M801.02,105.92c3.98,3.23,4.59,9.07,1.36,13.05-3.23,3.98-9.07,4.59-13.05,1.36-3.98-3.23-4.59-9.07-1.36-13.05s9.07-4.59,13.05-1.36Z"/>
        <path class="cls-1" d="M790.49,181.69c4.01,3.25,4.62,9.14,1.37,13.14-3.25,4.01-9.14,4.62-13.14,1.37-4.01-3.25-4.62-9.14-1.37-13.14,3.25-4.01,9.14-4.62,13.14-1.37Z"/>
        <circle class="cls-1" cx="854.78" cy="294.11" r="9.46" transform="translate(-25.82 89.92) rotate(-5.93)"/>
        <path class="cls-1" d="M677.23,452.77c2.33,1.89,2.69,5.32,.8,7.66-1.9,2.33-5.32,2.69-7.66,.8-2.33-1.9-2.69-5.32-.8-7.66,1.9-2.33,5.32-2.69,7.66-.8Z"/>
        <path class="cls-1" d="M380.11,836.27c2.33,1.89,2.69,5.32,.8,7.66-1.9,2.33-5.32,2.69-7.66,.8-2.33-1.9-2.69-5.32-.8-7.66,1.89-2.33,5.32-2.69,7.66-.8Z"/>
        <path class="cls-1" d="M722.53,526.43c2.33,1.9,2.69,5.32,.8,7.66-1.89,2.33-5.32,2.69-7.66,.8-2.33-1.9-2.69-5.32-.8-7.66s5.32-2.69,7.66-.8Z"/>
        <path class="cls-1" d="M879.56,437.75c2.33,1.89,2.69,5.32,.8,7.66-1.89,2.33-5.32,2.69-7.66,.8-2.33-1.9-2.69-5.32-.8-7.66,1.9-2.33,5.32-2.69,7.66-.8Z"/>
        <path class="cls-1" d="M976.21,355.57c2.33,1.89,2.69,5.32,.8,7.66-1.9,2.33-5.32,2.69-7.66,.8-2.33-1.89-2.69-5.32-.8-7.66,1.89-2.33,5.32-2.69,7.66-.8Z"/>
        <path class="cls-1" d="M941.95,331.47c2.33,1.89,2.69,5.32,.8,7.66-1.89,2.33-5.32,2.69-7.66,.8-2.33-1.89-2.69-5.32-.8-7.66,1.9-2.33,5.32-2.69,7.66-.8Z"/>
        <path class="cls-1" d="M881.71,387.95c3.8,3.08,4.38,8.66,1.29,12.45-3.08,3.8-8.66,4.38-12.45,1.29-3.8-3.08-4.38-8.66-1.29-12.45,3.08-3.8,8.66-4.38,12.45-1.29Z"/>
        <path class="cls-1" d="M637.77,772.5c2.6,2.11,3,5.93,.89,8.53s-5.93,3-8.53,.89-3-5.93-.89-8.53,5.93-3,8.53-.89Z"/>
        <path class="cls-1" d="M635.78,855.85c3.19,2.59,3.68,7.28,1.09,10.48-2.59,3.19-7.28,3.68-10.48,1.09s-3.68-7.28-1.09-10.48c2.59-3.19,7.28-3.68,10.48-1.09Z"/>
        <circle class="cls-1" cx="692.85" cy="837.42" r="8.39"/>
        <path class="cls-1" d="M855.78,760.22c2.42,1.97,2.79,5.52,.83,7.94-1.97,2.42-5.52,2.79-7.94,.83s-2.79-5.52-.83-7.94c1.97-2.42,5.52-2.79,7.94-.83Z"/>
        <path class="cls-1" d="M879.7,819.79c2.71,2.2,3.12,6.17,.92,8.88-2.2,2.71-6.17,3.12-8.88,.92-2.71-2.2-3.12-6.17-.92-8.88,2.2-2.71,6.17-3.12,8.88-.92Z"/>
        <path class="cls-1" d="M898.72,772.31c2.71,2.2,3.12,6.17,.92,8.88-2.2,2.71-6.17,3.12-8.88,.92-2.71-2.2-3.12-6.17-.92-8.88,2.2-2.71,6.17-3.12,8.88-.92Z"/>
        <path class="cls-1" d="M843.36,866.08c2.71,2.2,3.12,6.17,.92,8.88s-6.17,3.12-8.88,.92c-2.71-2.2-3.12-6.17-.92-8.88,2.2-2.71,6.17-3.12,8.88-.92Z"/>
      </g>
    </g>
  </g>
</svg>